<svg width="428" height="926" viewBox="0 0 428 926" fill="none" xmlns="http://www.w3.org/2000/svg">
    <defs>
        <linearGradient id="paint0_linear_158_901" x1="-770.833" y1="1281.12" x2="496.194" y2="1242.41" gradientUnits="userSpaceOnUse">
            <stop stop-color="#FF5C72"/>
            <stop offset="1" stop-color="#FF9278"/>
        </linearGradient>
        <clipPath id="clip0_158_901">
            <rect width="428" height="926" fill="white"/>
        </clipPath>
        <clipPath id="clip1_158_901">
            <rect width="3840" height="2160" fill="white" transform="translate(-1742 -705)"/>
        </clipPath>
        <clipPath id="clip2_158_901">
            <rect width="397" height="293" fill="white" transform="translate(12 38)"/>
        </clipPath>
    </defs>
<g clip-path="url(#clip0_158_901)">
<rect width="428" height="926" fill="#FAF6EF"/>
<g clip-path="url(#clip1_158_901)">
<path d="M2098 1455V1185.75C2098 1185.75 1770.6 395.839 1047.91 757.183C325.224 1118.53 468.081 1337.01 -78.137 1118.53C-624.355 900.04 -859.648 278.192 -1170.57 160.545C-1481.5 42.898 -1742 236.175 -1742 362.225C-1742 488.275 -1742 1455 -1742 1455H2098Z" fill="#FCAF7A"/>
<path d="M511.361 1738.82L112.231 1296.32C112.231 1296.32 26.0164 1707.98 -251.472 1492.47C-528.961 1276.95 -865.718 1433.25 -743.743 1275.12C-902.33 1113.3 -52.19 1433.8 -162.399 1411.07C-272.608 1388.35 -755.855 917.594 -605.5 913L481.027 746L511.361 1738.82Z" fill="url(#paint0_linear_158_901)"/>
<g clip-path="url(#clip2_158_901)">
<path d="M144.262 322.657C132.144 322.657 120.043 322.469 107.961 322.093C90.6965 321.555 72.8443 320.999 56.2514 313.018C44.6439 307.436 34.3637 298.479 26.5224 287.116C21.3494 279.561 17.4968 271.184 15.1286 262.343C13.9702 258.089 13.1295 253.756 12.6135 249.378C11.2006 237.551 12.2018 225.562 15.5566 214.132C17.1858 208.663 19.4057 203.387 22.1771 198.397C34.2776 176.666 56.3481 162.078 82.7297 158.375C82.9479 158.351 83.1678 158.346 83.3868 158.363C83.5054 158.368 83.6237 158.374 83.7442 158.37L83.8995 158.327C84.2996 158.207 84.708 158.116 85.1214 158.055C125.809 152.802 168.821 163.431 209.505 188.791C240.963 208.402 282.652 218.963 336.957 221.075L337.728 221.11C352.845 221.864 367.467 227.268 380.017 236.742C392.279 245.925 401.619 258.454 406.911 272.818C407.552 274.555 408.139 276.364 408.656 278.193C409.636 281.653 408.5 285.149 405.539 287.81V287.813L405.403 287.934C405.078 288.214 404.735 288.484 404.385 288.734L403.973 289.029C400.503 291.508 397.762 293.466 394.481 294.987C392.267 296.004 389.944 296.764 387.557 297.255C374.323 300.053 360.885 302.647 347.614 304.965C321.841 309.472 295.39 313.19 268.994 316.014C227.565 320.442 185.928 322.66 144.262 322.657V322.657ZM83.0782 159.133C82.9972 159.132 82.9163 159.137 82.836 159.147C56.701 162.815 34.8395 177.26 22.8589 198.775C20.1148 203.716 17.9169 208.94 16.3039 214.355C12.9795 225.683 11.9877 237.566 13.3883 249.287C13.8997 253.626 14.733 257.922 15.8813 262.138C18.2263 270.895 22.0415 279.191 27.1646 286.674C34.9292 297.926 45.1042 306.793 56.59 312.316C73.034 320.226 90.802 320.779 107.985 321.314C161.703 322.98 215.472 320.951 268.911 315.24C295.289 312.417 321.724 308.702 347.479 304.198C360.741 301.881 374.17 299.289 387.395 296.492C389.724 296.014 391.992 295.272 394.153 294.281C397.367 292.79 400.082 290.851 403.519 288.395L403.931 288.101C404.232 287.885 404.528 287.655 404.81 287.415L404.892 287.341C407.716 284.872 408.815 281.615 407.905 278.405V278.404C407.393 276.595 406.813 274.805 406.179 273.086C395.539 243.973 368.016 223.399 337.69 221.889L336.923 221.854C312.118 220.888 290.411 218.214 270.566 213.678C246.875 208.263 226.192 200.112 209.092 189.452C168.563 164.189 125.73 153.6 85.2208 158.828C84.8441 158.884 84.4721 158.968 84.1076 159.078L83.8278 159.146C83.6667 159.154 83.5086 159.148 83.3509 159.141C83.2574 159.137 83.1668 159.133 83.0782 159.133Z" fill="#F0F0F0"/>
<path d="M405.148 287.635V287.639C404.833 287.911 404.501 288.172 404.158 288.418C398.432 292.511 394.52 295.382 387.476 296.874C374.214 299.678 360.904 302.247 347.547 304.582C321.488 309.139 295.29 312.82 268.952 315.627C215.497 321.351 161.709 323.381 107.973 321.703C90.0778 321.146 72.8183 320.554 56.4208 312.667C44.4347 306.903 34.3637 297.793 26.8436 286.895C19.2183 275.845 14.5807 262.77 13.0009 249.333C16.714 247.714 20.6587 246.689 24.6906 246.295C38.6854 244.962 52.4579 250.08 65.1851 256.036C77.9162 261.987 90.4171 268.943 104.201 271.689C124.515 275.736 145.484 270.232 164.959 263.187C184.434 256.141 203.604 247.44 224.144 244.779C251.693 241.208 279.335 248.768 306.085 256.254C334.578 264.227 363.072 272.201 391.567 280.176C395.639 281.313 399.863 282.533 403.038 285.321C403.826 286.012 404.533 286.788 405.148 287.635Z" fill="#E6E6E6"/>
<path d="M405.148 287.635V287.639C404.833 287.911 404.501 288.172 404.158 288.418C400.569 290.981 397.695 293.068 394.317 294.634C382.705 295.775 371.078 296.763 359.435 297.598C329.468 299.744 299.442 300.885 269.358 301.022C208.328 301.333 144.161 303.242 90.7252 273.641C72.9448 263.791 47.1884 283.989 29.5739 273.189C24.4966 270.065 19.7786 266.394 15.505 262.24C14.3508 258.006 13.5138 253.691 13.0009 249.333C11.5869 237.559 12.5835 225.621 15.9302 214.244C17.5493 208.801 19.7583 203.551 22.518 198.586C30.7012 201.519 38.5489 205.741 46.0182 210.212C59.7166 218.403 73.0367 227.704 88.2913 232.394C110.777 239.307 135.105 235.506 157.922 229.788C180.74 224.07 203.405 216.452 226.921 215.809C258.46 214.949 288.817 226.676 318.176 238.217C347.628 249.796 377.085 261.374 406.545 272.951C407.192 274.708 407.771 276.49 408.28 278.299C409.322 281.976 407.812 285.306 405.148 287.635Z" fill="#F2F2F2"/>
<path d="M117.985 138.109C113.549 135.123 113.983 128.589 118.674 126.021C118.769 125.969 118.863 125.915 118.954 125.859C119.189 124.735 119.425 123.611 119.66 122.486C121.044 123.922 123.765 123.651 124.837 121.971C121.097 114.003 116.178 106.642 110.245 100.134C108.952 98.7085 108.226 96.8594 108.206 94.936C108.185 93.0126 108.87 91.1482 110.132 89.695C110.155 89.6686 110.177 89.642 110.199 89.6152C113.549 88.4855 116.722 86.8859 119.621 84.8646C109.678 68.9136 90.72 56.2415 86.2138 38C72.6571 52.5375 71.1353 57.6575 57.5786 72.195C57.5786 72.195 44.7419 83.7617 41.9712 89.9779C42.652 90.692 48.7469 92.4056 48.9812 93.8096C53.6293 94.1817 61.6819 89.0942 61.6819 89.0942C61.6819 89.0942 44.1058 107.806 38.7694 119.331C38.2889 120.369 37.8325 121.554 38.2351 122.624C38.5565 123.479 39.7095 123.972 40.4521 123.632C39.565 124.487 38.8527 125.505 38.3549 126.631C39.9035 127.618 41.7402 128.055 43.5682 127.871C45.3963 127.688 47.1088 126.894 48.429 125.618C47.6858 127.004 46.9425 128.391 46.1992 129.778L46.2005 129.781C47.2047 130.108 48.1058 130.692 48.815 131.474C49.5241 132.256 50.0167 133.209 50.244 134.239C50.4713 135.269 50.4256 136.341 50.1112 137.348C49.7969 138.355 49.2248 139.263 48.4516 139.982C43.8392 144.265 39.6247 148.768 38.0804 151.733C36.6276 154.522 51.5444 157.885 54.8996 157.747C58.2548 157.609 61.3909 156.137 64.4212 154.692C64.2735 156.072 64.5378 157.465 65.1809 158.695C66.8404 159.097 68.5637 159.164 70.2495 158.892C71.9353 158.62 73.5497 158.014 74.9978 157.11C74.8641 159.869 78.3498 161.393 80.7693 160.612C79.5614 179.693 80.4449 206.487 81.6054 234.302H84.4845V161.712C85.2506 162.099 86.0701 162.371 86.9162 162.519C92.8066 163.563 99.9149 164.198 103.748 159.611C108.159 164.053 116.244 163.969 120.63 159.542C120.198 160.306 120.859 161.591 121.836 161.793C122.988 162.032 124.108 161.349 125.086 160.696C129.513 157.741 133.94 154.785 138.367 151.83C132.904 148.152 125.144 142.928 117.985 138.109Z" fill="#E6E6E6"/>
<path d="M250.873 129.229C258.55 129.229 264.774 123.014 264.774 115.348C264.774 107.681 258.55 101.466 250.873 101.466C243.195 101.466 236.971 107.681 236.971 115.348C236.971 123.014 243.195 129.229 250.873 129.229Z" fill="#F2F2F2"/>
<path d="M281.987 108.776C281.183 106.086 278.911 104.331 276.167 103.945C276.136 103.941 276.108 103.947 276.078 103.945C276.039 103.933 275.999 103.924 275.959 103.918C272.071 103.444 268.137 104.299 264.798 106.344C261.58 108.349 257.831 109.257 254.041 109.404C254.019 109.405 253.996 109.406 253.974 109.407C252.565 109.501 251.219 110.026 250.12 110.911C249.021 111.795 248.221 112.997 247.83 114.352C247.789 114.518 247.801 114.692 247.865 114.851C247.93 115.009 248.043 115.143 248.189 115.233C248.609 115.588 249.106 115.84 249.641 115.969C250.796 116.213 251.955 116.437 253.117 116.64C255.386 117.036 257.667 117.357 259.959 117.602C264.613 118.1 269.296 118.276 273.974 118.131C275.532 118.082 277.034 118.03 278.462 117.344C279.5 116.832 280.388 116.058 281.037 115.1C281.648 114.179 282.05 113.136 282.214 112.043C282.378 110.95 282.301 109.835 281.987 108.776V108.776Z" fill="#E6E6E6"/>
<path d="M253.094 127.284C252.29 124.594 250.019 122.839 247.274 122.454C247.244 122.449 247.215 122.455 247.185 122.453C247.146 122.441 247.106 122.432 247.066 122.426C243.178 121.953 239.244 122.808 235.905 124.852C232.687 126.858 228.939 127.765 225.148 127.912C225.126 127.913 225.104 127.914 225.081 127.915C223.672 128.009 222.327 128.534 221.227 129.419C220.128 130.304 219.328 131.505 218.937 132.86C218.896 133.026 218.908 133.201 218.973 133.359C219.037 133.517 219.151 133.651 219.296 133.741C219.716 134.096 220.214 134.348 220.749 134.477C221.903 134.721 223.062 134.945 224.225 135.148C226.493 135.545 228.774 135.865 231.067 136.11C235.72 136.608 240.403 136.785 245.081 136.639C246.639 136.59 248.142 136.539 249.569 135.852C250.608 135.34 251.495 134.567 252.144 133.608C252.755 132.687 253.157 131.644 253.321 130.551C253.485 129.459 253.408 128.343 253.094 127.284V127.284Z" fill="#E6E6E6"/>
<path d="M370.734 185.237C366.298 182.251 366.732 175.718 371.423 173.15C371.518 173.097 371.612 173.043 371.704 172.987C371.939 171.863 372.174 170.739 372.409 169.615C373.793 171.05 376.514 170.779 377.587 169.099C373.846 161.131 368.927 153.77 362.995 147.262C361.701 145.837 360.976 143.988 360.955 142.064C360.934 140.141 361.619 138.276 362.881 136.823C362.904 136.797 362.926 136.77 362.949 136.743C366.299 135.614 369.471 134.014 372.37 131.993C362.428 116.042 343.469 103.37 338.963 85.1282C325.406 99.6657 323.885 104.786 310.328 119.323C310.328 119.323 297.491 130.89 294.721 137.106C295.401 137.82 301.496 139.534 301.731 140.938C306.379 141.31 314.431 136.222 314.431 136.222C314.431 136.222 296.855 154.934 291.519 166.459C291.038 167.497 290.582 168.682 290.984 169.753C291.306 170.607 292.459 171.1 293.201 170.76C292.314 171.615 291.602 172.633 291.104 173.759C292.653 174.746 294.49 175.183 296.318 175C298.146 174.816 299.858 174.022 301.178 172.746C300.435 174.132 299.692 175.519 298.949 176.906L298.95 176.909C299.954 177.237 300.855 177.82 301.564 178.602C302.273 179.384 302.766 180.337 302.993 181.367C303.221 182.398 303.175 183.469 302.861 184.476C302.546 185.483 301.974 186.391 301.201 187.11C296.589 191.393 292.374 195.896 290.83 198.861C289.377 201.651 304.294 205.013 307.649 204.875C311.004 204.737 314.14 203.265 317.171 201.82C317.023 203.2 317.287 204.593 317.93 205.823C319.59 206.225 321.313 206.292 322.999 206.02C324.685 205.748 326.299 205.142 327.747 204.238C327.613 206.997 331.099 208.521 333.519 207.74C332.311 226.821 333.194 253.615 334.355 281.43H337.234V208.84C338 209.228 338.819 209.5 339.666 209.647C345.556 210.691 352.664 211.326 356.497 206.739C360.909 211.181 368.993 211.097 373.379 206.67C372.947 207.434 373.608 208.719 374.585 208.922C375.737 209.16 376.858 208.477 377.836 207.824C382.263 204.869 386.689 201.913 391.116 198.958C385.653 195.28 377.893 190.057 370.734 185.237Z" fill="#E6E6E6"/>
<path d="M36.5612 259.236C36.8499 259.25 37.1357 259.174 37.3798 259.02C37.624 258.865 37.8147 258.64 37.9262 258.374C38.0376 258.107 38.0645 257.813 38.003 257.531C37.9416 257.249 37.7948 256.993 37.5826 256.797C37.5471 256.656 37.5216 256.555 37.4861 256.414C37.4988 256.383 37.5116 256.353 37.5244 256.322C37.8152 255.636 38.3025 255.051 38.9251 254.641C39.5477 254.231 40.2778 254.013 41.0237 254.016C41.7696 254.019 42.498 254.242 43.1175 254.656C43.737 255.071 44.22 255.66 44.5056 256.348C45.6475 259.094 47.1012 261.845 47.4591 264.748C47.6168 266.032 47.5503 267.333 47.2626 268.593C49.9444 262.752 51.337 256.402 51.346 249.976C51.3465 248.364 51.2568 246.752 51.0772 245.15C50.9288 243.836 50.7229 242.531 50.4595 241.236C49.0221 234.209 45.9359 227.623 41.4545 222.018C39.2855 220.837 37.5314 219.019 36.4285 216.811C36.029 216.018 35.7466 215.17 35.5902 214.296C35.8349 214.328 36.0836 214.348 36.3282 214.364C36.4045 214.368 36.4847 214.372 36.5609 214.376L36.5897 214.377C36.8586 214.389 37.1252 214.324 37.3575 214.188C37.5899 214.052 37.7779 213.852 37.8991 213.612C38.0203 213.372 38.0694 213.102 38.0405 212.835C38.0117 212.568 37.9061 212.314 37.7364 212.106C37.6308 211.976 37.5251 211.846 37.4193 211.716C37.2588 211.516 37.0944 211.32 36.9339 211.12C36.9154 211.101 36.898 211.081 36.8818 211.06C36.6973 210.831 36.5128 210.607 36.3282 210.379C36.665 209.857 37.1181 209.419 37.6519 209.101C39.5011 208.019 42.0522 208.768 43.3879 210.439C44.7276 212.109 44.9803 214.452 44.515 216.539C44.0574 218.315 43.3006 220 42.2768 221.522C42.3771 221.65 42.4814 221.774 42.5816 221.902C44.4147 224.256 46.0124 226.783 47.3518 229.448C47.0261 226.463 47.4148 223.443 48.486 220.636C49.5717 218.021 51.6066 215.819 53.3987 213.558C55.5511 210.842 59.965 212.027 60.3442 215.47C60.3479 215.503 60.3515 215.536 60.355 215.57C60.0888 215.72 59.8283 215.879 59.5733 216.047C59.2531 216.261 59.0049 216.566 58.8614 216.923C58.7179 217.28 58.6856 217.672 58.7689 218.047C58.8523 218.423 59.0472 218.764 59.3283 219.027C59.6093 219.29 59.9634 219.462 60.3441 219.521L60.383 219.527C60.2882 220.485 60.1206 221.434 59.8817 222.367C59.1893 224.97 57.9657 227.403 56.2878 229.512C54.6098 231.621 52.5136 233.361 50.1306 234.623C49.9741 234.704 49.8217 234.784 49.6652 234.86C50.3831 236.879 50.9568 238.947 51.382 241.048C51.7625 242.9 52.0277 244.775 52.1762 246.66C52.3581 249.035 52.3474 251.42 52.1441 253.793L52.1562 253.709C52.6696 251.07 54.0794 248.689 56.1473 246.968C59.2186 244.449 63.5579 243.521 66.8714 241.496C67.2235 241.27 67.633 241.15 68.0514 241.149C68.4699 241.147 68.8799 241.266 69.2332 241.49C69.5864 241.714 69.8681 242.034 70.0451 242.413C70.222 242.792 70.2868 243.213 70.2319 243.627C70.2274 243.657 70.2229 243.686 70.2183 243.716C69.7244 243.917 69.2435 244.148 68.7783 244.409C68.5122 244.559 68.2516 244.718 67.9967 244.886C67.6764 245.1 67.4283 245.405 67.2847 245.762C67.1412 246.119 67.109 246.511 67.1923 246.886C67.2756 247.262 67.4706 247.603 67.7516 247.866C68.0327 248.129 68.3868 248.301 68.7674 248.36L68.8064 248.366C68.8345 248.37 68.8586 248.374 68.8866 248.378C68.0426 250.39 66.8581 252.242 65.3849 253.853C63.565 255.803 61.3654 257.362 58.9209 258.433C56.4765 259.504 53.8388 260.065 51.1694 260.082H51.1654C50.4408 263.226 49.3909 266.287 48.0327 269.214H36.8417C36.8015 269.09 36.7654 268.962 36.7293 268.838C37.7652 268.903 38.8051 268.841 39.826 268.653C38.9956 267.636 38.1653 266.611 37.335 265.593C37.3165 265.574 37.2991 265.554 37.2829 265.533C36.8617 265.012 36.4365 264.496 36.0154 263.975L36.0151 263.974C35.9927 262.378 36.1761 260.786 36.5609 259.237L36.5612 259.236Z" fill="#E6E6E6"/>
<path d="M370.05 270.142C370.339 270.155 370.624 270.08 370.868 269.925C371.113 269.771 371.303 269.545 371.415 269.279C371.526 269.013 371.553 268.719 371.492 268.437C371.43 268.155 371.283 267.899 371.071 267.703C371.036 267.562 371.01 267.46 370.975 267.319C370.987 267.289 371 267.258 371.013 267.227C371.304 266.541 371.791 265.957 372.414 265.546C373.036 265.136 373.766 264.919 374.512 264.922C375.258 264.924 375.987 265.147 376.606 265.562C377.226 265.977 377.709 266.565 377.994 267.253C379.136 269.999 380.59 272.75 380.948 275.654C381.105 276.937 381.039 278.238 380.751 279.499C383.433 273.657 384.826 267.308 384.835 260.882C384.835 259.269 384.745 257.658 384.566 256.055C384.417 254.741 384.212 253.437 383.948 252.142C382.511 245.115 379.425 238.529 374.943 232.924C372.774 231.742 371.02 229.925 369.917 227.717C369.518 226.923 369.235 226.076 369.079 225.201C369.324 225.233 369.572 225.254 369.817 225.27C369.893 225.274 369.973 225.278 370.05 225.282L370.078 225.283C370.347 225.295 370.614 225.229 370.846 225.093C371.078 224.958 371.267 224.758 371.388 224.518C371.509 224.278 371.558 224.008 371.529 223.74C371.5 223.473 371.395 223.22 371.225 223.011C371.119 222.881 371.014 222.752 370.908 222.622C370.747 222.422 370.583 222.225 370.423 222.025C370.404 222.006 370.387 221.986 370.37 221.965C370.186 221.737 370.001 221.512 369.817 221.284C370.154 220.762 370.607 220.325 371.141 220.006C372.99 218.925 375.541 219.674 376.877 221.344C378.216 223.014 378.469 225.358 378.004 227.444C377.546 229.22 376.789 230.905 375.765 232.427C375.866 232.555 375.97 232.68 376.07 232.808C377.903 235.161 379.501 237.689 380.84 240.354C380.515 237.368 380.903 234.348 381.975 231.542C383.06 228.927 385.095 226.724 386.887 224.463C389.04 221.747 393.454 222.933 393.833 226.375C393.837 226.408 393.84 226.442 393.844 226.475C393.578 226.625 393.317 226.784 393.062 226.953C392.742 227.166 392.494 227.472 392.35 227.828C392.207 228.185 392.174 228.577 392.258 228.953C392.341 229.328 392.536 229.67 392.817 229.933C393.098 230.196 393.452 230.368 393.833 230.426L393.872 230.432C393.777 231.39 393.609 232.34 393.37 233.272C392.678 235.876 391.454 238.308 389.776 240.417C388.098 242.526 386.002 244.267 383.619 245.529C383.463 245.609 383.31 245.689 383.154 245.765C384.5 249.573 385.344 253.54 385.665 257.565C385.847 259.94 385.836 262.326 385.633 264.699L385.645 264.615C386.158 261.976 387.568 259.595 389.636 257.874C392.707 255.354 397.047 254.426 400.36 252.401C400.712 252.176 401.122 252.055 401.54 252.054C401.959 252.053 402.369 252.171 402.722 252.396C403.075 252.62 403.357 252.94 403.534 253.319C403.711 253.697 403.776 254.119 403.721 254.533C403.716 254.562 403.712 254.592 403.707 254.621C403.213 254.822 402.732 255.053 402.267 255.314C402.001 255.464 401.74 255.623 401.485 255.792C401.165 256.005 400.917 256.311 400.773 256.667C400.63 257.024 400.598 257.416 400.681 257.792C400.764 258.167 400.959 258.509 401.24 258.772C401.521 259.035 401.875 259.207 402.256 259.265L402.295 259.271C402.323 259.275 402.347 259.279 402.375 259.284C401.531 261.296 400.347 263.148 398.874 264.759C397.054 266.709 394.854 268.267 392.41 269.338C389.965 270.409 387.327 270.97 384.658 270.987H384.654C383.929 274.132 382.88 277.192 381.521 280.12H370.33C370.29 279.995 370.254 279.867 370.218 279.743C371.254 279.808 372.294 279.746 373.315 279.559C372.484 278.542 371.654 277.516 370.824 276.499C370.805 276.48 370.788 276.46 370.772 276.439C370.35 275.918 369.925 275.401 369.504 274.881L369.504 274.88C369.481 273.284 369.665 271.692 370.05 270.142L370.05 270.142Z" fill="#E6E6E6"/>
<path d="M237.044 237.815C237.333 237.828 237.619 237.752 237.863 237.598C238.107 237.443 238.298 237.218 238.409 236.952C238.521 236.685 238.548 236.391 238.486 236.109C238.425 235.827 238.278 235.571 238.066 235.375C238.03 235.234 238.005 235.133 237.969 234.992C237.982 234.961 237.995 234.931 238.008 234.9C238.298 234.214 238.786 233.629 239.408 233.219C240.031 232.809 240.761 232.591 241.507 232.594C242.253 232.597 242.981 232.82 243.601 233.235C244.22 233.649 244.703 234.238 244.989 234.926C246.131 237.672 247.584 240.423 247.942 243.326C248.1 244.61 248.034 245.911 247.746 247.171C250.428 241.33 251.82 234.981 251.829 228.554C251.83 226.942 251.74 225.33 251.56 223.728C251.412 222.414 251.206 221.109 250.943 219.814C249.505 212.787 246.419 206.201 241.938 200.596C239.769 199.415 238.015 197.597 236.912 195.389C236.512 194.596 236.23 193.749 236.073 192.874C236.318 192.906 236.567 192.926 236.812 192.942C236.888 192.946 236.968 192.95 237.044 192.954L237.073 192.955C237.342 192.967 237.608 192.902 237.841 192.766C238.073 192.63 238.261 192.43 238.382 192.19C238.504 191.95 238.553 191.68 238.524 191.413C238.495 191.146 238.389 190.893 238.22 190.684C238.114 190.554 238.008 190.424 237.903 190.295C237.742 190.094 237.578 189.898 237.417 189.698C237.399 189.679 237.381 189.659 237.365 189.638C237.181 189.409 236.996 189.185 236.812 188.957C237.148 188.435 237.601 187.997 238.135 187.679C239.984 186.598 242.535 187.347 243.871 189.017C245.211 190.687 245.464 193.03 244.998 195.117C244.541 196.893 243.784 198.578 242.76 200.1C242.86 200.228 242.965 200.352 243.065 200.48C244.898 202.834 246.496 205.362 247.835 208.027C247.509 205.041 247.898 202.021 248.969 199.215C250.055 196.599 252.09 194.397 253.882 192.136C256.034 189.42 260.448 190.605 260.827 194.048C260.831 194.081 260.835 194.114 260.838 194.148C260.572 194.298 260.312 194.457 260.057 194.625C259.736 194.839 259.488 195.144 259.345 195.501C259.201 195.858 259.169 196.25 259.252 196.625C259.336 197.001 259.53 197.342 259.812 197.605C260.093 197.868 260.447 198.04 260.827 198.099L260.866 198.105C260.771 199.063 260.604 200.012 260.365 200.945C259.673 203.548 258.449 205.981 256.771 208.09C255.093 210.199 252.997 211.939 250.614 213.202C250.457 213.282 250.305 213.362 250.148 213.438C251.494 217.246 252.338 221.212 252.659 225.238C252.841 227.613 252.831 229.998 252.627 232.371L252.639 232.287C253.153 229.648 254.563 227.267 256.631 225.546C259.702 223.027 264.041 222.099 267.355 220.074C267.707 219.848 268.116 219.728 268.535 219.727C268.953 219.726 269.363 219.844 269.716 220.068C270.07 220.292 270.351 220.612 270.528 220.991C270.705 221.37 270.77 221.791 270.715 222.205C270.711 222.235 270.706 222.264 270.702 222.294C270.208 222.495 269.727 222.726 269.262 222.987C268.995 223.137 268.735 223.296 268.48 223.464C268.16 223.678 267.912 223.983 267.768 224.34C267.624 224.697 267.592 225.089 267.676 225.464C267.759 225.84 267.954 226.181 268.235 226.444C268.516 226.707 268.87 226.879 269.251 226.938L269.29 226.944C269.318 226.948 269.342 226.952 269.37 226.956C268.526 228.968 267.341 230.821 265.868 232.431C264.048 234.382 261.849 235.94 259.404 237.011C256.96 238.082 254.322 238.643 251.653 238.66H251.649C250.924 241.804 249.874 244.865 248.516 247.792H237.325C237.285 247.668 237.249 247.54 237.213 247.416C238.248 247.481 239.288 247.419 240.309 247.231C239.479 246.214 238.649 245.189 237.818 244.171C237.8 244.152 237.782 244.132 237.766 244.111C237.345 243.591 236.92 243.074 236.499 242.553L236.498 242.553C236.476 240.956 236.659 239.364 237.044 237.815L237.044 237.815Z" fill="#E6E6E6"/>
<path d="M165.936 322.734L170.619 321.343L167.521 302.227L160.609 304.279L165.936 322.734Z" fill="#FFB6B6"/>
<path d="M137.215 315.188C137.5 315.436 137.786 315.681 138.075 315.927C138.649 316.417 139.231 316.902 139.814 317.38C140.107 317.619 140.404 317.859 140.697 318.096L140.696 318.105L140.714 318.112L140.72 318.116L141.193 318.315L142.196 316.562L142.658 315.755L143.312 314.611L144.509 312.519L150.812 301.503L144.172 298.708L143.746 299.724L143.742 299.724L143.531 300.227L139.566 309.623L138.757 311.544L138.731 311.602L138.244 312.749L137.825 313.743L137.357 314.854L137.215 315.188Z" fill="#FFB6B6"/>
<path d="M102.521 267.515C102.847 268.287 103.184 269.057 103.525 269.821C104.158 271.244 104.817 272.651 105.501 274.042C105.5 274.045 105.504 274.046 105.506 274.049C105.946 274.607 106.449 275.112 107.005 275.553C107.028 275.576 107.054 275.594 107.077 275.614C107.488 275.933 107.937 276.201 108.413 276.411C108.585 276.484 108.76 276.557 108.932 276.63C109.554 276.886 110.172 277.118 110.791 277.334C111.891 277.714 112.989 278.036 114.086 278.3C114.174 278.324 114.262 278.344 114.351 278.365C118.873 279.424 123.413 279.589 128.203 279.439C130.568 279.368 132.994 279.219 135.507 279.063C136.328 279.009 137.152 278.96 137.986 278.912C138.049 278.908 138.115 278.903 138.181 278.9C139.372 278.83 140.582 278.766 141.82 278.71C143.379 278.639 144.984 278.585 146.647 278.556L146.171 280.815C145.797 282.551 145.159 284.22 144.278 285.762C143.267 287.671 142.467 289.181 143.094 292.688L143.395 294.385C142.98 295.139 142.746 295.978 142.71 296.837C142.674 297.697 142.839 298.553 143.19 299.338L143.275 299.525L136.776 310.513L136.355 311.225L138.731 311.601L141.653 312.066L146.606 312.85L156.024 299.662L156.474 299.033L156.48 298.998L160.106 271.366C160.134 271.122 160.154 270.873 160.161 270.625C160.206 269.502 160.026 268.38 159.632 267.326C159.238 266.273 158.638 265.308 157.866 264.489C157.128 263.698 156.239 263.061 155.253 262.616C154.266 262.172 153.2 261.927 152.118 261.897L149.622 261.826L144.521 261.681L140.928 261.58L140.857 261.579L130.261 261.278L129.997 258.127L129.868 258.054L125.75 255.763L111.509 247.838L111.473 247.819L110.536 247.298L110.388 247.47C110.343 247.522 110.299 247.574 110.258 247.627C108.996 249.231 107.901 250.96 106.991 252.786C105.475 255.765 104.13 258.827 102.963 261.959C102.912 262.094 102.866 262.218 102.825 262.33L102.81 262.363C102.792 262.416 102.78 262.45 102.775 262.459C102.197 263.854 102.159 265.661 102.521 267.515Z" fill="#2F2E41"/>
<path d="M103.491 257.274C103.571 257.078 103.665 256.88 103.761 256.689C104.51 255.245 105.339 253.844 106.242 252.492C107.26 250.951 108.448 249.316 109.831 247.561C110.5 246.711 111.214 245.83 111.974 244.918C112.355 244.461 112.748 243.996 113.155 243.524C113.172 243.501 113.19 243.48 113.208 243.46L113.325 243.321L127.967 247.686L127.96 249.688L129.022 252.525L128.95 252.608C128.953 252.609 128.953 252.606 128.95 252.608V252.219L129.34 252.608L133.115 257.266L133.141 257.267L141.576 257.504L150.27 257.75L154.939 257.883C156.022 257.913 157.087 258.157 158.074 258.602C159.061 259.047 159.949 259.684 160.687 260.475C161.458 261.294 162.058 262.259 162.452 263.313C162.846 264.366 163.026 265.488 162.982 266.612C162.975 266.84 162.958 267.073 162.932 267.301L165.628 278.198C167.242 284.716 167.862 291.439 167.467 298.141L169.03 308.748L168.572 308.719L161.765 308.28L159.967 308.166L156.968 301.862C156.626 301.144 156.31 300.409 156.025 299.664C155.554 298.445 155.162 297.198 154.85 295.93L149.592 274.543C148.922 274.551 148.26 274.556 147.604 274.555C144.57 274.567 141.669 274.508 138.9 274.38C129.895 273.967 122.221 272.832 115.533 270.917C113.655 270.381 111.852 269.781 110.125 269.119C109.491 268.878 108.868 268.627 108.254 268.368C108.11 268.309 107.968 268.251 107.827 268.189C106.56 267.64 105.45 266.782 104.601 265.693C103.751 264.605 103.188 263.322 102.964 261.96C102.689 260.38 102.872 258.754 103.491 257.274V257.274Z" fill="#2F2E41"/>
<path d="M165.016 319.547L170.084 318.037L170.878 317.8L171.6 320.879L179.55 323.993C179.943 324.146 180.276 324.421 180.502 324.778C180.727 325.134 180.833 325.553 180.803 325.974C180.772 326.394 180.608 326.794 180.335 327.115C180.061 327.436 179.691 327.661 179.28 327.757L170.712 329.763L168.521 327.063L168.659 330.244L165.431 331L163.784 319.915L165.016 319.547Z" fill="#2F2E41"/>
<path d="M136.776 310.513L136.355 311.225L136.655 311.273L136.776 310.513Z" fill="#2F2E41"/>
<path d="M138.27 311.695L142.935 314.183L143.667 314.573L142.009 317.267L145.465 325.065C145.636 325.451 145.679 325.881 145.588 326.292C145.497 326.704 145.277 327.076 144.959 327.354C144.641 327.631 144.243 327.8 143.822 327.836C143.402 327.871 142.981 327.771 142.621 327.551L135.119 322.956L135.464 319.498L133.321 321.855L130.495 320.125L137.135 311.091L138.27 311.695Z" fill="#2F2E41"/>
<path d="M171.977 169.856C172.022 170.372 171.953 170.892 171.775 171.378C171.597 171.865 171.314 172.307 170.947 172.672C170.579 173.038 170.136 173.319 169.648 173.495C169.16 173.671 168.64 173.739 168.123 173.692L162.935 185.171L159.432 179.64L164.896 169.587C165.031 168.725 165.479 167.943 166.154 167.389C166.828 166.835 167.683 166.547 168.556 166.58C169.429 166.614 170.259 166.965 170.89 167.569C171.52 168.173 171.907 168.986 171.977 169.856H171.977Z" fill="#FFB6B6"/>
<path d="M158.781 204.005L135.012 222.166C133.126 223.603 130.747 224.235 128.395 223.923C126.044 223.61 123.912 222.379 122.468 220.499V220.499C121.67 219.458 121.112 218.253 120.832 216.972C120.553 215.69 120.559 214.363 120.851 213.084C121.143 211.806 121.713 210.607 122.521 209.573C123.329 208.539 124.355 207.695 125.526 207.102L149.223 195.097L159.823 174.474L166.941 176.587L158.781 204.005Z" fill="#7F80E9"/>
<path d="M108.159 225.579L107.677 243.201C101.046 254.389 100.292 259.822 102.127 262.719L129.395 252.772L129.855 251.676L131.279 243.802L133.861 235.678C134.315 234.829 140.486 229.614 134.701 219.721L123.063 204.065L113.738 203.532C112.201 207.472 114.974 209.622 112.204 210.531C105.94 216.263 106.861 217.196 108.159 225.579Z" fill="#7F80E9"/>
<path d="M89.6141 275.052C89.4029 274.579 89.2982 274.065 89.3073 273.547C89.3165 273.029 89.4392 272.519 89.667 272.054C89.8948 271.588 90.222 271.178 90.6256 270.853C91.0291 270.527 91.4993 270.294 92.003 270.169L93.1532 257.628L98.2726 261.714L96.3955 272.997C96.5489 273.856 96.3814 274.741 95.925 275.485C95.4685 276.228 94.7547 276.779 93.9188 277.032C93.0829 277.286 92.183 277.224 91.3896 276.859C90.5962 276.494 89.9645 275.851 89.6141 275.052V275.052Z" fill="#FFB6B6"/>
<path d="M90.9216 238.472L107.45 213.557C108.762 211.584 110.805 210.211 113.13 209.739C115.455 209.268 117.872 209.737 119.851 211.043V211.043C120.946 211.767 121.868 212.723 122.551 213.843C123.234 214.963 123.662 216.22 123.804 217.524C123.947 218.828 123.8 220.147 123.374 221.388C122.948 222.628 122.254 223.76 121.341 224.703L102.869 243.776L99.592 266.724L92.1735 267.048L90.9216 238.472Z" fill="#7F80E9"/>
<path d="M125.952 182.152C129.249 188.642 127.095 196.159 120.976 200.111C114.36 204.386 105.77 203.45 102.992 195.143C99.8975 185.893 102.439 181.925 107.967 177.184C114.444 171.629 122.389 175.141 125.952 182.152Z" fill="#2F2E41"/>
<path d="M109.721 196.609C111.4 198.805 113.882 200.246 116.624 200.615C119.366 200.985 122.143 200.252 124.344 198.578C126.545 196.904 127.991 194.427 128.364 191.689C128.737 188.951 128.006 186.178 126.332 183.978L126.241 183.859C124.532 181.722 122.049 180.342 119.329 180.016C116.609 179.69 113.87 180.445 111.702 182.118C109.534 183.791 108.112 186.247 107.742 188.958C107.372 191.668 108.084 194.415 109.724 196.607L109.721 196.609Z" fill="#FFB6B6"/>
<path d="M129.147 181.102C127.45 182.714 125.382 183.884 123.126 184.509C122.673 183.986 122.137 183.542 121.539 183.195C121.825 183.79 122.021 184.424 122.121 185.077C121.114 187.163 117.004 188.662 113.075 190.195L107.871 181.025L114.759 177.127C120.294 173.306 126.809 174.937 129.147 181.102Z" fill="#2F2E41"/>
<path d="M103.946 177.196C103.008 176.763 101.794 177.03 100.913 177.638C100.074 178.275 99.396 179.098 98.9327 180.043C98.0902 181.571 97.4849 183.219 97.1375 184.928C96.8404 186.408 96.8907 188.196 98.2198 188.968C99.3288 189.612 100.914 189.206 101.934 188.347C102.953 187.487 103.527 186.279 104.025 185.099C104.522 183.92 104.992 182.696 105.876 181.717L104.958 182.145C105.248 181.265 105.383 180.341 105.358 179.415C105.337 178.954 105.195 178.507 104.947 178.118C104.7 177.728 104.354 177.411 103.946 177.196Z" fill="#2F2E41"/>
<path d="M115.859 178.398L108.469 182.579C106.471 183.71 105.005 185.587 104.392 187.797C103.78 190.007 104.072 192.37 105.204 194.365V194.365C106.854 197.271 109.529 199.459 112.707 200.5C115.885 201.542 119.338 201.363 122.391 199.998L115.639 194.045L124.799 198.706L126.755 197.599C116.93 195.815 115.035 188.12 115.859 178.398Z" fill="#2F2E41"/>
</g>
<path fill-rule="evenodd" clip-rule="evenodd" d="M391.064 849.796C391.033 849.155 391.039 848.53 391.07 847.944C391.173 846.18 392.812 846.186 392.94 846.189C393.207 846.195 394.397 846.27 394.682 847.645C394.7 847.727 394.743 848.321 394.755 848.55C394.779 849.038 394.791 849.517 394.724 849.999C394.785 850.815 394.919 851.655 395.174 852.446C395.544 853.613 396.145 854.689 397.232 855.263C399.174 856.295 401.73 856.253 403.867 856.516C404.759 856.625 405.439 857.369 405.47 858.268C405.494 859.167 404.863 859.951 403.976 860.114C401.305 860.608 398.233 863.037 396.279 864.993C395.678 865.594 395.004 867.026 394.251 867.942C393.644 868.677 392.97 869.169 392.333 869.365C392.084 869.441 390.706 869.718 390.086 868.291C389.916 867.89 389.315 865.792 389.261 865.553C388.933 864.182 388.466 862.958 387.549 861.867C386.754 860.922 385.788 860.097 384.629 859.639C384.161 859.454 383.676 859.314 383.19 859.17C383.02 859.149 382.54 859.088 382.37 859.031C382.024 858.915 381.769 858.734 381.587 858.554C381.241 858.213 381.065 857.806 381.035 857.342C381.011 857.036 381.053 856.673 381.272 856.27C381.436 855.984 381.806 855.554 382.474 855.275C383.172 854.983 384.671 854.705 384.938 854.633C386.796 854.133 388.617 853.372 390.044 852.054C390.754 851.394 390.918 850.683 391.064 849.796ZM392.254 854.959C392.97 856.444 394.038 857.694 395.526 858.481C396.139 858.808 396.807 859.057 397.499 859.25C396.072 860.243 394.749 861.372 393.698 862.419C393.358 862.759 392.988 863.311 392.594 863.916C392.132 862.3 391.452 860.848 390.335 859.52C389.674 858.737 388.927 858.021 388.095 857.424C389.601 856.828 391.027 856.031 392.254 854.959Z" fill="#35312B"/>
<path fill-rule="evenodd" clip-rule="evenodd" d="M353.116 901.38C366.933 901.714 381.053 901.04 394.263 905.763C395.21 906.103 396.254 905.606 396.594 904.665C396.934 903.718 396.437 902.673 395.489 902.333C381.909 897.477 367.406 898.078 353.207 897.738C352.199 897.714 351.367 898.509 351.343 899.511C351.319 900.518 352.114 901.35 353.116 901.38Z" fill="#35312B"/>
<path fill-rule="evenodd" clip-rule="evenodd" d="M352.09 881.196C356.369 877.259 361.038 874.306 366.684 872.845C367.655 872.593 368.238 871.598 367.989 870.625C367.734 869.652 366.744 869.067 365.767 869.319C359.526 870.934 354.354 874.164 349.625 878.514C348.884 879.195 348.836 880.347 349.516 881.087C350.196 881.827 351.349 881.876 352.09 881.196Z" fill="#35312B"/>
<path fill-rule="evenodd" clip-rule="evenodd" d="M271.312 828.365C270.171 829.721 269.151 831.178 268.277 832.726C267.767 833.619 266.869 835.699 267.02 837.205C267.136 838.334 267.67 839.252 268.738 839.793C270.444 840.66 271.81 840.554 272.86 840.03C273.868 839.529 274.669 838.551 275.167 837.231C276.054 834.874 275.95 831.31 275.501 829.164C276.715 827.926 278.045 826.8 279.459 825.796C290.338 818.084 306.298 820.966 318.579 832.496C322.883 836.536 324.929 845.028 326.004 854.181C327.697 868.543 326.732 884.584 326.599 889.283C326.568 890.52 326.702 891.253 326.763 891.399C327.103 892.207 327.71 892.42 328.128 892.499C328.717 892.608 329.185 892.493 329.567 892.292C330.077 892.025 330.502 891.557 330.696 890.827C330.794 890.454 330.824 889.936 330.812 889.383C330.8 889.056 330.721 888.699 330.787 888.465C331.261 886.818 331.832 885.208 332.384 883.589C334.242 878.14 336.652 873.035 339.317 867.935C347.81 851.72 356.005 834.582 369.926 822.228C370.678 821.561 370.751 820.409 370.083 819.657C369.416 818.905 368.262 818.837 367.509 819.504C353.255 832.152 344.781 849.644 336.093 866.246C334.072 870.103 332.202 873.966 330.593 877.968C330.739 868.932 330.52 856.687 328.511 846.58C327.084 839.373 324.699 833.239 321.074 829.841C307.373 816.977 289.488 814.221 277.353 822.824C276.157 823.671 275.022 824.595 273.947 825.592C267.5 814.333 254.005 809.866 242.064 815.316C241.153 815.733 240.746 816.814 241.165 817.729C241.584 818.643 242.665 819.047 243.575 818.629C254.102 813.826 266.025 818.063 271.312 828.365ZM272.247 833.202C271.968 833.633 271.701 834.072 271.446 834.521C271.264 834.835 270.991 835.383 270.802 835.968C270.742 836.172 270.693 836.491 270.669 836.687C270.893 836.794 271.076 836.85 271.239 836.769C271.507 836.635 271.622 836.3 271.755 835.946C272.053 835.158 272.205 834.176 272.247 833.202Z" fill="#35312B"/>
</g>
<path d="M29.4544 725.004C28.0254 725.059 26.6701 725.653 25.6601 726.665C24.5972 727.728 24 729.17 24 730.673C24 732.177 24.5972 733.619 25.6601 734.682L55.3722 764.394C56.4354 765.457 57.8772 766.054 59.3806 766.054C60.884 766.054 62.3258 765.457 63.389 764.394C63.9164 763.867 64.3347 763.242 64.6202 762.554C64.9057 761.865 65.0527 761.127 65.0527 760.382C65.0527 759.637 64.9057 758.899 64.6202 758.21C64.3347 757.522 63.9164 756.896 63.389 756.37L33.6842 726.665C33.1319 726.111 32.471 725.678 31.743 725.392C31.0151 725.106 30.2359 724.974 29.4544 725.004Z" fill="#7F80E9"/>
<path d="M363.653 461.913C364.416 463.123 365.607 464 366.989 464.369C368.441 464.758 369.988 464.554 371.29 463.803C370.901 465.255 372.592 463.051 371.29 463.803L382.166 423.215C382.554 421.763 384.992 416.774 384.24 415.472C383.489 414.17 382.251 413.22 380.798 412.83C380.079 412.637 379.328 412.587 378.589 412.684C377.85 412.781 377.138 413.023 376.492 413.396C375.847 413.768 375.281 414.265 374.828 414.856C374.374 415.447 376.684 412.676 376.492 413.396L365.619 453.973C365.416 454.728 362.729 458.964 362.845 459.737C362.961 460.511 363.237 461.252 363.653 461.913Z" fill="#7F80E9"/>
</g>

</svg>
