<svg width="428" height="926" viewBox="0 0 428 926" fill="none" xmlns="http://www.w3.org/2000/svg">
<g clip-path="url(#clip0_159_1400)">
<rect width="428" height="926" fill="#FAF6EF"/>
<g clip-path="url(#clip1_159_1400)">
<path d="M2098 1455V1185.75C2098 1185.75 1770.6 395.839 1047.91 757.183C325.224 1118.53 468.081 1337.01 -78.1371 1118.53C-624.355 900.04 -859.648 278.192 -1170.57 160.545C-1481.5 42.898 -1742 236.175 -1742 362.225C-1742 488.275 -1742 1455 -1742 1455H2098Z" fill="#FCAF7A"/>
<g clip-path="url(#clip2_159_1400)">
<path d="M144.262 295.658C132.144 295.658 120.043 295.469 107.961 295.093C90.6964 294.555 72.8442 294 56.2513 286.018C44.6438 280.436 34.3636 271.479 26.5223 260.116C21.3493 252.561 17.4967 244.184 15.1286 235.343C13.9701 231.089 13.1294 226.756 12.6134 222.378C11.2005 210.552 12.2017 198.562 15.5565 187.132C17.1857 181.663 19.4056 176.387 22.177 171.397C34.2775 149.666 56.348 135.078 82.7296 131.375C82.9478 131.351 83.1677 131.347 83.3867 131.363C83.5053 131.369 83.6236 131.374 83.7441 131.37L83.8994 131.327C84.2995 131.207 84.7079 131.116 85.1213 131.055C125.809 125.802 168.821 136.431 209.505 161.791C240.962 181.402 282.652 191.963 336.956 194.076L337.727 194.111C352.845 194.864 367.467 200.269 380.016 209.742C392.279 218.925 401.619 231.454 406.911 245.818C407.552 247.555 408.139 249.364 408.656 251.193C409.636 254.653 408.5 258.149 405.539 260.81V260.813L405.403 260.934C405.078 261.214 404.735 261.484 404.385 261.734L403.973 262.029C400.503 264.508 397.762 266.466 394.481 267.988C392.267 269.004 389.944 269.765 387.556 270.255C374.323 273.053 360.884 275.647 347.614 277.966C321.841 282.472 295.39 286.19 268.994 289.015C227.565 293.442 185.928 295.66 144.262 295.658V295.658ZM83.0781 132.133C82.9971 132.132 82.9162 132.137 82.8359 132.147C56.7009 135.815 34.8394 150.26 22.8588 171.775C20.1147 176.716 17.9168 181.94 16.3038 187.355C12.9794 198.683 11.9876 210.566 13.3882 222.287C13.8996 226.626 14.7329 230.922 15.8812 235.138C18.2262 243.895 22.0414 252.191 27.1645 259.674C34.9291 270.926 45.1041 279.793 56.5899 285.316C73.0339 293.226 90.8019 293.779 107.985 294.314C161.703 295.98 215.472 293.951 268.911 288.24C295.289 285.417 321.724 281.702 347.479 277.198C360.741 274.881 374.17 272.289 387.395 269.493C389.724 269.015 391.992 268.273 394.153 267.281C397.367 265.791 400.082 263.851 403.519 261.395L403.931 261.101C404.232 260.885 404.528 260.655 404.81 260.415L404.892 260.342C407.716 257.873 408.814 254.615 407.905 251.405V251.405C407.393 249.595 406.813 247.806 406.179 246.086C395.539 216.973 368.016 196.399 337.69 194.889L336.923 194.854C312.118 193.888 290.411 191.215 270.566 186.678C246.875 181.264 226.192 173.112 209.092 162.452C168.563 137.189 125.73 126.6 85.2207 131.828C84.844 131.884 84.472 131.968 84.1075 132.078L83.8278 132.146C83.6666 132.155 83.5085 132.148 83.3508 132.141C83.2573 132.137 83.1667 132.133 83.0781 132.133Z" fill="#F0F0F0"/>
<path d="M405.148 260.635V260.639C404.833 260.911 404.501 261.172 404.158 261.418C398.432 265.511 394.52 268.382 387.476 269.874C374.214 272.678 360.904 275.247 347.547 277.582C321.488 282.139 295.29 285.82 268.953 288.627C215.497 294.351 161.709 296.381 107.973 294.703C90.0778 294.146 72.8183 293.554 56.4208 285.667C44.4347 279.903 34.3637 270.793 26.8437 259.895C19.2183 248.845 14.5807 235.77 13.001 222.333C16.714 220.714 20.6587 219.689 24.6906 219.295C38.6855 217.962 52.4579 223.08 65.1851 229.036C77.9162 234.987 90.4171 241.943 104.201 244.689C124.515 248.736 145.484 243.232 164.959 236.187C184.434 229.141 203.604 220.44 224.144 217.779C251.693 214.208 279.336 221.768 306.085 229.254C334.578 237.227 363.072 245.201 391.567 253.176C395.639 254.313 399.863 255.533 403.038 258.321C403.826 259.012 404.533 259.788 405.148 260.635Z" fill="#E6E6E6"/>
<path d="M405.149 260.635V260.639C404.833 260.911 404.501 261.172 404.158 261.418C400.569 263.981 397.695 266.068 394.317 267.634C382.705 268.775 371.078 269.763 359.435 270.598C329.468 272.744 299.442 273.885 269.358 274.022C208.328 274.333 144.162 276.242 90.7253 246.641C72.9449 236.791 47.1885 256.989 29.5741 246.189C24.4967 243.065 19.7787 239.394 15.5051 235.24C14.3509 231.006 13.5139 226.691 13.001 222.333C11.587 210.559 12.5836 198.621 15.9303 187.244C17.5494 181.801 19.7584 176.551 22.5181 171.586C30.7013 174.519 38.549 178.741 46.0184 183.212C59.7167 191.403 73.0368 200.704 88.2915 205.394C110.778 212.307 135.105 208.506 157.922 202.788C180.74 197.07 203.405 189.452 226.921 188.809C258.46 187.949 288.818 199.676 318.176 211.217C347.629 222.796 377.085 234.374 406.545 245.951C407.192 247.708 407.771 249.49 408.281 251.299C409.322 254.976 407.813 258.306 405.149 260.635Z" fill="#F2F2F2"/>
<path d="M117.985 111.109C113.549 108.123 113.983 101.589 118.674 99.0214C118.769 98.9691 118.863 98.9151 118.954 98.8593C119.19 97.735 119.425 96.6107 119.66 95.4864C121.044 96.9216 123.765 96.6508 124.838 94.9709C121.097 87.0029 116.178 79.6417 110.245 73.1341C108.952 71.7085 108.227 69.8594 108.206 67.936C108.185 66.0126 108.87 64.1482 110.132 62.695C110.155 62.6686 110.177 62.642 110.199 62.6152C113.549 61.4855 116.722 59.8859 119.621 57.8646C109.679 41.9136 90.7201 29.2415 86.2139 11C72.6572 25.5375 71.1354 30.6575 57.5787 45.195C57.5787 45.195 44.742 56.7617 41.9713 62.9779C42.6521 63.692 48.747 65.4056 48.9813 66.8096C53.6294 67.1817 61.682 62.0942 61.682 62.0942C61.682 62.0942 44.1058 80.8056 38.7695 92.3309C38.289 93.3688 37.8326 94.5539 38.2352 95.6243C38.5566 96.4789 39.7096 96.9717 40.4521 96.6322C39.5651 97.4865 38.8528 98.5049 38.355 99.6308C39.9036 100.618 41.7403 101.055 43.5683 100.871C45.3963 100.688 47.1089 99.8935 48.4291 98.6176C47.6859 100.004 46.9426 101.391 46.1993 102.778L46.2006 102.781C47.2048 103.108 48.1059 103.692 48.8151 104.474C49.5242 105.256 50.0168 106.209 50.2441 107.239C50.4714 108.269 50.4256 109.341 50.1113 110.348C49.7969 111.355 49.2249 112.263 48.4517 112.982C43.8393 117.265 39.6248 121.768 38.0805 124.733C36.6277 127.522 51.5445 130.885 54.8997 130.747C58.2549 130.609 61.391 129.137 64.4213 127.692C64.2736 129.072 64.5379 130.465 65.1809 131.695C66.8405 132.097 68.5638 132.164 70.2496 131.892C71.9354 131.62 73.5498 131.014 74.9979 130.11C74.8642 132.869 78.3499 134.393 80.7694 133.612C79.5615 152.693 80.445 179.487 81.6055 207.302H84.4846V134.712C85.2507 135.099 86.0702 135.371 86.9163 135.519C92.8067 136.563 99.915 137.198 103.748 132.611C108.16 137.053 116.244 136.969 120.63 132.542C120.198 133.306 120.859 134.591 121.836 134.793C122.988 135.032 124.109 134.349 125.086 133.696C129.513 130.741 133.94 127.785 138.367 124.83C132.904 121.152 125.144 115.928 117.985 111.109Z" fill="#E6E6E6"/>
<path d="M250.873 102.229C258.55 102.229 264.774 96.0142 264.774 88.3477C264.774 80.6812 258.55 74.4663 250.873 74.4663C243.195 74.4663 236.971 80.6812 236.971 88.3477C236.971 96.0142 243.195 102.229 250.873 102.229Z" fill="#F2F2F2"/>
<path d="M281.987 81.7754C281.183 79.0861 278.911 77.3304 276.167 76.9452C276.136 76.941 276.108 76.9466 276.078 76.9447C276.039 76.9328 275.999 76.9237 275.959 76.9174C272.071 76.4442 268.137 77.2993 264.798 79.3434C261.58 81.3493 257.831 82.2566 254.041 82.4039C254.018 82.4048 253.996 82.4058 253.974 82.4069C252.565 82.5006 251.219 83.0257 250.12 83.9105C249.021 84.7953 248.221 85.9969 247.83 87.3517C247.788 87.5176 247.801 87.6923 247.865 87.8507C247.93 88.009 248.043 88.1427 248.189 88.2324C248.609 88.5877 249.106 88.8399 249.641 88.9686C250.796 89.2128 251.954 89.4366 253.117 89.6398C255.386 90.0363 257.667 90.3568 259.959 90.6014C264.613 91.0994 269.296 91.2762 273.974 91.1304C275.532 91.0819 277.034 91.0303 278.462 90.3436C279.5 89.8314 280.388 89.0582 281.036 88.1C281.648 87.1791 282.05 86.1356 282.214 85.0429C282.378 83.9502 282.3 82.8349 281.987 81.7754V81.7754Z" fill="#E6E6E6"/>
<path d="M253.094 100.284C252.29 97.5946 250.019 95.8389 247.274 95.4538C247.244 95.4495 247.215 95.4551 247.185 95.4532C247.146 95.4413 247.106 95.4322 247.066 95.4259C243.178 94.9527 239.244 95.8079 235.905 97.852C232.687 99.8579 228.939 100.765 225.148 100.912C225.126 100.913 225.104 100.914 225.081 100.915C223.672 101.009 222.327 101.534 221.227 102.419C220.128 103.304 219.328 104.505 218.937 105.86C218.896 106.026 218.908 106.201 218.973 106.359C219.037 106.518 219.151 106.651 219.296 106.741C219.716 107.096 220.214 107.348 220.749 107.477C221.903 107.721 223.062 107.945 224.225 108.148C226.493 108.545 228.774 108.865 231.067 109.11C235.72 109.608 240.403 109.785 245.081 109.639C246.639 109.59 248.142 109.539 249.569 108.852C250.608 108.34 251.495 107.567 252.144 106.609C252.755 105.688 253.157 104.644 253.321 103.551C253.485 102.459 253.408 101.343 253.094 100.284V100.284Z" fill="#E6E6E6"/>
<path d="M370.734 158.237C366.298 155.251 366.732 148.717 371.423 146.149C371.518 146.097 371.612 146.043 371.704 145.987C371.939 144.863 372.174 143.739 372.409 142.614C373.793 144.05 376.514 143.779 377.587 142.099C373.846 134.131 368.927 126.77 362.995 120.262C361.701 118.837 360.976 116.987 360.955 115.064C360.934 113.141 361.619 111.276 362.881 109.823C362.904 109.797 362.926 109.77 362.949 109.743C366.299 108.614 369.471 107.014 372.37 104.993C362.428 89.0417 343.469 76.3696 338.963 58.1281C325.406 72.6656 323.885 77.7856 310.328 92.3231C310.328 92.3231 297.491 103.89 294.721 110.106C295.401 110.82 301.496 112.534 301.731 113.938C306.379 114.31 314.431 109.222 314.431 109.222C314.431 109.222 296.855 127.934 291.519 139.459C291.038 140.497 290.582 141.682 290.984 142.752C291.306 143.607 292.459 144.1 293.201 143.76C292.314 144.615 291.602 145.633 291.104 146.759C292.653 147.746 294.49 148.183 296.318 148C298.146 147.816 299.858 147.022 301.178 145.746C300.435 147.132 299.692 148.519 298.949 149.906L298.95 149.909C299.954 150.237 300.855 150.82 301.564 151.602C302.273 152.384 302.766 153.337 302.993 154.367C303.221 155.397 303.175 156.469 302.861 157.476C302.546 158.483 301.974 159.391 301.201 160.11C296.589 164.393 292.374 168.896 290.83 171.861C289.377 174.651 304.294 178.013 307.649 177.875C311.004 177.737 314.14 176.265 317.171 174.82C317.023 176.2 317.287 177.593 317.93 178.823C319.59 179.225 321.313 179.292 322.999 179.02C324.685 178.748 326.299 178.142 327.747 177.238C327.613 179.997 331.099 181.521 333.519 180.74C332.311 199.821 333.194 226.615 334.355 254.43H337.234V181.84C338 182.227 338.819 182.5 339.666 182.647C345.556 183.691 352.664 184.326 356.497 179.739C360.909 184.181 368.993 184.097 373.379 179.67C372.947 180.434 373.608 181.719 374.585 181.922C375.737 182.16 376.858 181.477 377.836 180.824C382.263 177.869 386.689 174.913 391.116 171.958C385.653 168.28 377.893 163.056 370.734 158.237Z" fill="#E6E6E6"/>
<path d="M36.5614 232.236C36.85 232.25 37.1358 232.174 37.3799 232.02C37.6241 231.865 37.8148 231.64 37.9263 231.373C38.0378 231.107 38.0646 230.813 38.0031 230.531C37.9417 230.249 37.7949 229.993 37.5827 229.797C37.5472 229.656 37.5217 229.555 37.4862 229.414C37.4989 229.383 37.5117 229.352 37.5245 229.322C37.8154 228.636 38.3026 228.051 38.9252 227.641C39.5478 227.231 40.2779 227.013 41.0238 227.016C41.7697 227.019 42.4981 227.241 43.1176 227.656C43.7371 228.071 44.2201 228.66 44.5058 229.348C45.6476 232.094 47.1013 234.845 47.4592 237.748C47.6169 239.031 47.5504 240.332 47.2627 241.593C49.9445 235.752 51.3371 229.402 51.3461 222.976C51.3466 221.363 51.2569 219.752 51.0773 218.15C50.9289 216.836 50.723 215.531 50.4596 214.236C49.0222 207.209 45.9361 200.623 41.4546 195.018C39.2856 193.836 37.5315 192.019 36.4287 189.811C36.0291 189.018 35.7468 188.17 35.5903 187.296C35.835 187.328 36.0837 187.348 36.3284 187.364C36.4046 187.368 36.4848 187.372 36.561 187.376L36.5898 187.377C36.8587 187.389 37.1253 187.323 37.3577 187.188C37.59 187.052 37.778 186.852 37.8992 186.612C38.0204 186.372 38.0695 186.102 38.0406 185.835C38.0118 185.568 37.9062 185.314 37.7365 185.106C37.6309 184.976 37.5252 184.846 37.4194 184.716C37.259 184.516 37.0945 184.32 36.9341 184.12C36.9156 184.1 36.8981 184.08 36.8819 184.059C36.6974 183.831 36.5129 183.607 36.3284 183.378C36.6652 182.856 37.1182 182.419 37.652 182.101C39.5012 181.019 42.0523 181.768 43.388 183.439C44.7277 185.109 44.9804 187.452 44.5151 189.539C44.0576 191.315 43.3007 192.999 42.2769 194.522C42.3772 194.65 42.4815 194.774 42.5818 194.902C44.4149 197.256 46.0125 199.783 47.3519 202.448C47.0262 199.463 47.4149 196.443 48.4862 193.636C49.5718 191.021 51.6068 188.818 53.3988 186.557C55.5513 183.842 59.9651 185.027 60.3444 188.47C60.348 188.503 60.3516 188.536 60.3551 188.569C60.0889 188.719 59.8284 188.879 59.5735 189.047C59.2532 189.261 59.005 189.566 58.8615 189.923C58.718 190.28 58.6858 190.672 58.7691 191.047C58.8524 191.423 59.0473 191.764 59.3284 192.027C59.6095 192.29 59.9635 192.462 60.3442 192.521L60.3832 192.527C60.2883 193.485 60.1207 194.434 59.8818 195.367C59.1894 197.97 57.9659 200.403 56.2879 202.512C54.6099 204.621 52.5137 206.361 50.1307 207.623C49.9743 207.703 49.8218 207.783 49.6654 207.86C50.3832 209.879 50.9569 211.947 51.3821 214.048C51.7626 215.9 52.0279 217.774 52.1763 219.66C52.3582 222.034 52.3475 224.42 52.1443 226.793L52.1563 226.709C52.6698 224.07 54.0795 221.689 56.1474 219.968C59.2188 217.449 63.558 216.521 66.8715 214.496C67.2236 214.27 67.6331 214.149 68.0515 214.148C68.47 214.147 68.8801 214.266 69.2333 214.49C69.5865 214.714 69.8682 215.034 70.0452 215.413C70.2221 215.792 70.287 216.213 70.232 216.627C70.2276 216.657 70.223 216.686 70.2184 216.716C69.7245 216.916 69.2436 217.148 68.7785 217.408C68.5123 217.558 68.2517 217.718 67.9968 217.886C67.6766 218.1 67.4284 218.405 67.2849 218.762C67.1413 219.119 67.1091 219.511 67.1924 219.886C67.2757 220.262 67.4707 220.603 67.7518 220.866C68.0328 221.129 68.3869 221.301 68.7675 221.36L68.8065 221.366C68.8346 221.37 68.8587 221.374 68.8867 221.378C68.0428 223.39 66.8582 225.242 65.385 226.853C63.5651 228.803 61.3655 230.362 58.9211 231.433C56.4766 232.504 53.8389 233.065 51.1696 233.082H51.1655C50.4409 236.226 49.3911 239.287 48.0328 242.214H36.8418C36.8016 242.09 36.7656 241.962 36.7294 241.838C37.7653 241.903 38.8053 241.841 39.8261 241.653C38.9958 240.636 38.1655 239.61 37.3351 238.593C37.3166 238.574 37.2992 238.554 37.283 238.533C36.8618 238.012 36.4367 237.496 36.0155 236.975L36.0153 236.974C35.9928 235.378 36.1762 233.786 36.561 232.237L36.5614 232.236Z" fill="#E6E6E6"/>
<path d="M370.05 243.142C370.339 243.155 370.624 243.08 370.868 242.925C371.113 242.771 371.303 242.545 371.415 242.279C371.526 242.013 371.553 241.719 371.492 241.437C371.43 241.155 371.283 240.899 371.071 240.703C371.036 240.562 371.01 240.461 370.975 240.319C370.987 240.289 371 240.258 371.013 240.227C371.304 239.542 371.791 238.957 372.414 238.546C373.036 238.136 373.766 237.919 374.512 237.922C375.258 237.924 375.987 238.147 376.606 238.562C377.226 238.977 377.709 239.565 377.994 240.253C379.136 242.999 380.59 245.75 380.948 248.654C381.105 249.937 381.039 251.238 380.751 252.499C383.433 246.657 384.826 240.308 384.835 233.882C384.835 232.269 384.745 230.658 384.566 229.055C384.417 227.741 384.212 226.437 383.948 225.142C382.511 218.115 379.425 211.529 374.943 205.924C372.774 204.742 371.02 202.925 369.917 200.717C369.518 199.923 369.235 199.076 369.079 198.202C369.324 198.234 369.572 198.254 369.817 198.27C369.893 198.274 369.973 198.278 370.05 198.282L370.078 198.283C370.347 198.295 370.614 198.229 370.846 198.093C371.078 197.958 371.267 197.758 371.388 197.518C371.509 197.278 371.558 197.008 371.529 196.74C371.5 196.473 371.395 196.22 371.225 196.011C371.119 195.881 371.014 195.752 370.908 195.622C370.747 195.422 370.583 195.225 370.423 195.025C370.404 195.006 370.387 194.986 370.37 194.965C370.186 194.737 370.001 194.512 369.817 194.284C370.154 193.762 370.607 193.325 371.141 193.006C372.99 191.925 375.541 192.674 376.877 194.344C378.216 196.015 378.469 198.358 378.004 200.445C377.546 202.22 376.789 203.905 375.765 205.427C375.866 205.555 375.97 205.68 376.07 205.808C377.903 208.162 379.501 210.689 380.84 213.354C380.515 210.368 380.903 207.348 381.975 204.542C383.06 201.927 385.095 199.724 386.887 197.463C389.04 194.747 393.454 195.933 393.833 199.375C393.837 199.409 393.84 199.442 393.844 199.475C393.578 199.625 393.317 199.784 393.062 199.953C392.742 200.166 392.494 200.472 392.35 200.829C392.207 201.185 392.174 201.577 392.258 201.953C392.341 202.328 392.536 202.67 392.817 202.933C393.098 203.196 393.452 203.368 393.833 203.427L393.872 203.433C393.777 204.39 393.609 205.34 393.37 206.272C392.678 208.876 391.454 211.308 389.776 213.417C388.098 215.527 386.002 217.267 383.619 218.529C383.463 218.609 383.31 218.689 383.154 218.765C384.5 222.573 385.344 226.54 385.665 230.565C385.847 232.94 385.836 235.326 385.633 237.699L385.645 237.615C386.158 234.976 387.568 232.595 389.636 230.874C392.707 228.354 397.047 227.426 400.36 225.401C400.712 225.176 401.122 225.055 401.54 225.054C401.959 225.053 402.369 225.172 402.722 225.396C403.075 225.62 403.357 225.94 403.534 226.319C403.711 226.697 403.776 227.119 403.721 227.533C403.716 227.562 403.712 227.592 403.707 227.621C403.213 227.822 402.732 228.054 402.267 228.314C402.001 228.464 401.74 228.623 401.485 228.792C401.165 229.005 400.917 229.311 400.773 229.667C400.63 230.024 400.598 230.416 400.681 230.792C400.764 231.167 400.959 231.509 401.24 231.772C401.521 232.035 401.875 232.207 402.256 232.266L402.295 232.271C402.323 232.276 402.347 232.28 402.375 232.284C401.531 234.296 400.347 236.148 398.874 237.759C397.054 239.709 394.854 241.267 392.41 242.338C389.965 243.409 387.327 243.97 384.658 243.987H384.654C383.929 247.132 382.88 250.192 381.521 253.12H370.33C370.29 252.996 370.254 252.867 370.218 252.743C371.254 252.808 372.294 252.746 373.315 252.559C372.484 251.542 371.654 250.516 370.824 249.499C370.805 249.48 370.788 249.46 370.772 249.439C370.35 248.918 369.925 248.401 369.504 247.881L369.504 247.88C369.481 246.284 369.665 244.692 370.05 243.142L370.05 243.142Z" fill="#E6E6E6"/>
<path d="M237.044 210.814C237.333 210.828 237.619 210.752 237.863 210.598C238.107 210.443 238.298 210.218 238.409 209.952C238.521 209.685 238.548 209.391 238.486 209.109C238.425 208.827 238.278 208.571 238.066 208.375C238.03 208.234 238.005 208.133 237.969 207.992C237.982 207.961 237.995 207.931 238.008 207.9C238.298 207.214 238.786 206.629 239.408 206.219C240.031 205.809 240.761 205.591 241.507 205.594C242.253 205.597 242.981 205.82 243.601 206.234C244.22 206.649 244.703 207.238 244.989 207.926C246.131 210.672 247.584 213.423 247.942 216.326C248.1 217.61 248.034 218.911 247.746 220.171C250.428 214.33 251.82 207.98 251.829 201.554C251.83 199.942 251.74 198.33 251.56 196.728C251.412 195.414 251.206 194.109 250.943 192.814C249.505 185.787 246.419 179.201 241.938 173.596C239.769 172.415 238.015 170.597 236.912 168.389C236.512 167.596 236.23 166.748 236.073 165.874C236.318 165.906 236.567 165.926 236.812 165.942C236.888 165.946 236.968 165.95 237.044 165.954L237.073 165.955C237.342 165.967 237.608 165.902 237.841 165.766C238.073 165.63 238.261 165.43 238.382 165.19C238.504 164.95 238.553 164.68 238.524 164.413C238.495 164.146 238.389 163.892 238.22 163.684C238.114 163.554 238.008 163.424 237.903 163.294C237.742 163.094 237.578 162.898 237.417 162.698C237.399 162.679 237.381 162.659 237.365 162.638C237.181 162.409 236.996 162.185 236.812 161.957C237.148 161.435 237.601 160.997 238.135 160.679C239.984 159.598 242.535 160.346 243.871 162.017C245.211 163.687 245.464 166.03 244.998 168.117C244.541 169.893 243.784 171.578 242.76 173.1C242.86 173.228 242.965 173.352 243.065 173.48C244.898 175.834 246.496 178.362 247.835 181.027C247.509 178.041 247.898 175.021 248.969 172.215C250.055 169.599 252.09 167.397 253.882 165.136C256.034 162.42 260.448 163.605 260.827 167.048C260.831 167.081 260.835 167.114 260.838 167.148C260.572 167.298 260.312 167.457 260.057 167.625C259.736 167.839 259.488 168.144 259.345 168.501C259.201 168.858 259.169 169.25 259.252 169.625C259.336 170.001 259.53 170.342 259.812 170.605C260.093 170.868 260.447 171.04 260.827 171.099L260.866 171.105C260.771 172.063 260.604 173.012 260.365 173.945C259.673 176.548 258.449 178.981 256.771 181.09C255.093 183.199 252.997 184.939 250.614 186.201C250.457 186.282 250.305 186.362 250.148 186.438C251.494 190.246 252.338 194.212 252.659 198.238C252.841 200.613 252.831 202.998 252.627 205.371L252.639 205.287C253.153 202.648 254.563 200.267 256.631 198.546C259.702 196.027 264.041 195.099 267.355 193.074C267.707 192.848 268.116 192.728 268.535 192.727C268.953 192.726 269.363 192.844 269.716 193.068C270.07 193.292 270.351 193.612 270.528 193.991C270.705 194.37 270.77 194.791 270.715 195.205C270.711 195.235 270.706 195.264 270.702 195.294C270.208 195.495 269.727 195.726 269.262 195.987C268.995 196.137 268.735 196.296 268.48 196.464C268.16 196.678 267.912 196.983 267.768 197.34C267.624 197.697 267.592 198.089 267.676 198.464C267.759 198.84 267.954 199.181 268.235 199.444C268.516 199.707 268.87 199.879 269.251 199.938L269.29 199.944C269.318 199.948 269.342 199.952 269.37 199.956C268.526 201.968 267.341 203.82 265.868 205.431C264.048 207.381 261.849 208.94 259.404 210.011C256.96 211.082 254.322 211.643 251.653 211.66H251.649C250.924 214.804 249.874 217.865 248.516 220.792H237.325C237.285 220.668 237.249 220.54 237.213 220.416C238.248 220.481 239.288 220.419 240.309 220.231C239.479 219.214 238.649 218.189 237.818 217.171C237.8 217.152 237.782 217.132 237.766 217.111C237.345 216.59 236.92 216.074 236.499 215.553L236.498 215.552C236.476 213.956 236.659 212.364 237.044 210.815L237.044 210.814Z" fill="#E6E6E6"/>
<path d="M165.936 295.734L170.619 294.343L167.521 275.227L160.609 277.279L165.936 295.734Z" fill="#FFB6B6"/>
<path d="M137.215 288.188C137.5 288.436 137.786 288.681 138.075 288.927C138.649 289.417 139.231 289.902 139.814 290.38C140.107 290.62 140.404 290.86 140.697 291.096L140.696 291.105L140.714 291.112L140.72 291.116L141.193 291.315L142.196 289.562L142.658 288.755L143.312 287.611L144.509 285.519L150.812 274.503L144.172 271.708L143.746 272.724L143.742 272.724L143.531 273.227L139.566 282.623L138.757 284.544L138.731 284.602L138.245 285.749L137.825 286.743L137.357 287.854L137.215 288.188Z" fill="#FFB6B6"/>
<path d="M102.521 240.515C102.847 241.287 103.184 242.057 103.525 242.821C104.158 244.244 104.817 245.651 105.501 247.042C105.5 247.045 105.504 247.046 105.506 247.049C105.946 247.607 106.449 248.112 107.005 248.553C107.028 248.576 107.054 248.594 107.077 248.614C107.488 248.933 107.936 249.201 108.413 249.411C108.585 249.484 108.76 249.557 108.932 249.63C109.554 249.886 110.172 250.118 110.79 250.334C111.891 250.714 112.989 251.036 114.086 251.3C114.174 251.324 114.262 251.344 114.351 251.365C118.873 252.424 123.413 252.589 128.203 252.439C130.568 252.368 132.994 252.219 135.507 252.063C136.328 252.009 137.152 251.96 137.986 251.912C138.049 251.908 138.115 251.903 138.181 251.9C139.372 251.83 140.582 251.766 141.82 251.71C143.379 251.639 144.984 251.585 146.647 251.556L146.17 253.815C145.797 255.551 145.159 257.22 144.278 258.762C143.267 260.671 142.467 262.181 143.094 265.688L143.395 267.385C142.98 268.139 142.745 268.978 142.71 269.837C142.674 270.697 142.838 271.553 143.19 272.338L143.275 272.525L136.776 283.513L136.355 284.225L138.731 284.601L141.653 285.066L146.606 285.85L156.024 272.662L156.474 272.033L156.48 271.998L160.105 244.366C160.134 244.122 160.154 243.873 160.161 243.625C160.205 242.502 160.026 241.38 159.632 240.326C159.238 239.273 158.637 238.308 157.866 237.489C157.128 236.698 156.239 236.061 155.253 235.616C154.266 235.172 153.2 234.927 152.118 234.897L149.622 234.826L144.521 234.681L140.928 234.58L140.856 234.579L130.261 234.278L129.997 231.127L129.868 231.054L125.75 228.763L111.509 220.838L111.473 220.819L110.536 220.298L110.387 220.47C110.343 220.522 110.299 220.574 110.258 220.627C108.996 222.231 107.901 223.96 106.991 225.786C105.475 228.765 104.13 231.827 102.963 234.959C102.912 235.094 102.866 235.218 102.825 235.33L102.81 235.363C102.792 235.416 102.78 235.45 102.775 235.459C102.197 236.854 102.159 238.661 102.521 240.515Z" fill="#2F2E41"/>
<path d="M103.491 230.274C103.571 230.078 103.665 229.88 103.761 229.689C104.51 228.245 105.339 226.844 106.242 225.492C107.26 223.951 108.448 222.315 109.831 220.56C110.5 219.71 111.214 218.83 111.974 217.918C112.355 217.461 112.748 216.996 113.155 216.523C113.172 216.501 113.19 216.48 113.208 216.46L113.325 216.321L127.967 220.686L127.96 222.688L129.022 225.525L128.95 225.608C128.953 225.609 128.953 225.605 128.95 225.608V225.219L129.34 225.608L133.115 230.266L133.141 230.267L141.576 230.504L150.27 230.75L154.939 230.883C156.022 230.913 157.087 231.157 158.074 231.602C159.061 232.047 159.949 232.684 160.687 233.475C161.458 234.294 162.058 235.259 162.452 236.313C162.846 237.366 163.026 238.488 162.982 239.612C162.975 239.84 162.958 240.073 162.932 240.301L165.628 251.198C167.242 257.716 167.862 264.439 167.467 271.141L169.03 281.748L168.572 281.718L161.765 281.28L159.967 281.166L156.968 274.862C156.626 274.144 156.31 273.409 156.025 272.664C155.554 271.445 155.162 270.198 154.85 268.93L149.592 247.543C148.922 247.551 148.26 247.555 147.604 247.555C144.57 247.567 141.669 247.508 138.9 247.38C129.895 246.967 122.221 245.832 115.533 243.917C113.655 243.381 111.852 242.781 110.125 242.119C109.491 241.878 108.868 241.627 108.254 241.368C108.11 241.309 107.968 241.25 107.827 241.189C106.56 240.64 105.45 239.782 104.601 238.693C103.751 237.605 103.188 236.322 102.964 234.96C102.689 233.38 102.872 231.754 103.491 230.274V230.274Z" fill="#2F2E41"/>
<path d="M165.016 292.547L170.084 291.037L170.878 290.8L171.599 293.879L179.549 296.993C179.943 297.146 180.276 297.421 180.502 297.778C180.727 298.134 180.833 298.553 180.802 298.974C180.772 299.394 180.608 299.794 180.335 300.115C180.061 300.436 179.691 300.661 179.28 300.757L170.712 302.763L168.521 300.063L168.659 303.244L165.431 304L163.784 292.915L165.016 292.547Z" fill="#2F2E41"/>
<path d="M136.776 283.513L136.354 284.225L136.655 284.273L136.776 283.513Z" fill="#2F2E41"/>
<path d="M138.27 284.695L142.935 287.183L143.667 287.572L142.009 290.267L145.465 298.065C145.636 298.451 145.679 298.881 145.588 299.292C145.497 299.704 145.277 300.076 144.959 300.353C144.641 300.631 144.243 300.8 143.823 300.836C143.402 300.871 142.981 300.771 142.621 300.551L135.119 295.956L135.464 292.498L133.321 294.855L130.495 293.125L137.135 284.091L138.27 284.695Z" fill="#2F2E41"/>
<path d="M171.977 142.856C172.022 143.372 171.953 143.892 171.775 144.378C171.597 144.865 171.314 145.307 170.947 145.673C170.579 146.038 170.136 146.319 169.648 146.495C169.16 146.671 168.64 146.739 168.123 146.692L162.935 158.171L159.432 152.64L164.896 142.587C165.031 141.725 165.479 140.943 166.154 140.389C166.828 139.835 167.683 139.547 168.556 139.581C169.429 139.614 170.259 139.965 170.89 140.569C171.52 141.173 171.907 141.986 171.977 142.856H171.977Z" fill="#FFB6B6"/>
<path d="M158.781 177.005L135.012 195.166C133.126 196.603 130.747 197.235 128.395 196.923C126.043 196.61 123.912 195.379 122.468 193.499V193.499C121.67 192.458 121.112 191.253 120.832 189.972C120.552 188.69 120.559 187.363 120.851 186.084C121.143 184.806 121.713 183.607 122.521 182.573C123.329 181.539 124.355 180.695 125.526 180.102L149.223 168.097L159.823 147.474L166.941 149.587L158.781 177.005Z" fill="#7F80E9"/>
<path d="M108.159 198.58L107.677 216.202C101.046 227.389 100.292 232.822 102.127 235.719L129.395 225.772L129.855 224.676L131.279 216.803L133.861 208.678C134.315 207.83 140.486 202.614 134.701 192.721L123.063 177.065L113.738 176.532C112.201 180.472 114.974 182.622 112.204 183.531C105.941 189.263 106.861 190.196 108.159 198.58Z" fill="#7F80E9"/>
<path d="M89.6142 248.052C89.403 247.579 89.2983 247.065 89.3074 246.547C89.3166 246.029 89.4394 245.519 89.6671 245.054C89.8949 244.588 90.2221 244.178 90.6257 243.853C91.0293 243.527 91.4995 243.294 92.0031 243.17L93.1533 230.628L98.2727 234.714L96.3956 245.997C96.549 246.856 96.3816 247.741 95.9251 248.485C95.4686 249.229 94.7548 249.779 93.9189 250.033C93.083 250.286 92.1831 250.224 91.3897 249.859C90.5963 249.494 89.9646 248.851 89.6142 248.052V248.052Z" fill="#FFB6B6"/>
<path d="M90.9216 211.472L107.45 186.557C108.762 184.584 110.805 183.211 113.13 182.739C115.455 182.268 117.872 182.736 119.851 184.043V184.043C120.946 184.767 121.868 185.723 122.551 186.843C123.234 187.963 123.662 189.22 123.804 190.524C123.947 191.828 123.8 193.147 123.374 194.387C122.948 195.628 122.254 196.76 121.341 197.703L102.869 216.776L99.592 239.724L92.1736 240.048L90.9216 211.472Z" fill="#7F80E9"/>
<path d="M125.952 155.152C129.249 161.642 127.095 169.159 120.976 173.111C114.36 177.386 105.77 176.45 102.992 168.143C99.8975 158.893 102.439 154.925 107.967 150.184C114.444 144.629 122.389 148.141 125.952 155.152Z" fill="#2F2E41"/>
<path d="M109.721 169.609C111.4 171.805 113.883 173.246 116.624 173.615C119.366 173.985 122.143 173.252 124.344 171.578C126.545 169.904 127.991 167.427 128.364 164.689C128.737 161.951 128.006 159.178 126.332 156.978L126.242 156.859C124.532 154.722 122.049 153.342 119.329 153.016C116.609 152.69 113.87 153.445 111.702 155.118C109.534 156.791 108.112 159.247 107.742 161.958C107.372 164.668 108.084 167.415 109.724 169.607L109.721 169.609Z" fill="#FFB6B6"/>
<path d="M129.147 154.102C127.45 155.714 125.382 156.884 123.125 157.508C122.673 156.986 122.137 156.542 121.539 156.195C121.825 156.79 122.021 157.424 122.121 158.077C121.114 160.163 117.004 161.662 113.075 163.195L107.871 154.024L114.759 150.127C120.294 146.306 126.809 147.937 129.147 154.102Z" fill="#2F2E41"/>
<path d="M103.946 150.196C103.008 149.763 101.794 150.03 100.913 150.638C100.074 151.275 99.396 152.098 98.9327 153.043C98.0902 154.571 97.4849 156.219 97.1375 157.928C96.8404 159.408 96.8907 161.196 98.2198 161.968C99.3288 162.612 100.914 162.206 101.934 161.347C102.953 160.487 103.527 159.279 104.025 158.099C104.522 156.92 104.992 155.696 105.876 154.717L104.958 155.145C105.248 154.265 105.383 153.341 105.358 152.415C105.337 151.954 105.195 151.507 104.947 151.118C104.7 150.728 104.354 150.411 103.946 150.196Z" fill="#2F2E41"/>
<path d="M115.859 151.398L108.469 155.579C106.471 156.71 105.004 158.587 104.392 160.797C103.78 163.007 104.072 165.37 105.204 167.365V167.365C106.853 170.271 109.529 172.459 112.707 173.5C115.885 174.542 119.338 174.363 122.391 172.998L115.638 167.045L124.799 171.706L126.755 170.599C116.93 168.815 115.035 161.12 115.859 151.398Z" fill="#2F2E41"/>
</g>
<path fill-rule="evenodd" clip-rule="evenodd" d="M391.064 849.796C391.033 849.155 391.039 848.53 391.07 847.944C391.173 846.18 392.812 846.186 392.94 846.189C393.207 846.195 394.397 846.27 394.682 847.645C394.7 847.727 394.743 848.321 394.755 848.55C394.779 849.038 394.791 849.517 394.724 849.999C394.785 850.815 394.919 851.655 395.174 852.446C395.544 853.613 396.145 854.689 397.232 855.263C399.174 856.295 401.73 856.253 403.867 856.516C404.759 856.625 405.439 857.369 405.47 858.268C405.494 859.167 404.863 859.951 403.976 860.114C401.305 860.608 398.233 863.037 396.279 864.993C395.678 865.594 395.004 867.026 394.251 867.942C393.644 868.677 392.97 869.169 392.333 869.365C392.084 869.441 390.706 869.718 390.086 868.291C389.916 867.89 389.315 865.792 389.261 865.553C388.933 864.182 388.466 862.958 387.549 861.867C386.754 860.922 385.788 860.097 384.629 859.639C384.161 859.454 383.676 859.314 383.19 859.17C383.02 859.149 382.54 859.088 382.37 859.031C382.024 858.915 381.769 858.734 381.587 858.554C381.241 858.213 381.065 857.806 381.035 857.342C381.011 857.036 381.053 856.673 381.272 856.27C381.436 855.984 381.806 855.554 382.474 855.275C383.172 854.983 384.671 854.705 384.938 854.633C386.796 854.133 388.617 853.372 390.044 852.054C390.754 851.394 390.918 850.683 391.064 849.796ZM392.254 854.959C392.97 856.444 394.038 857.694 395.526 858.481C396.139 858.808 396.807 859.057 397.499 859.25C396.072 860.243 394.749 861.372 393.698 862.419C393.358 862.759 392.988 863.311 392.594 863.916C392.132 862.3 391.452 860.848 390.335 859.52C389.674 858.737 388.927 858.021 388.095 857.424C389.601 856.828 391.027 856.031 392.254 854.959Z" fill="#35312B"/>
<path fill-rule="evenodd" clip-rule="evenodd" d="M353.116 901.38C366.933 901.714 381.053 901.04 394.263 905.763C395.21 906.103 396.254 905.605 396.594 904.664C396.934 903.717 396.437 902.673 395.489 902.333C381.909 897.477 367.406 898.078 353.207 897.738C352.199 897.713 351.367 898.509 351.343 899.51C351.319 900.518 352.114 901.35 353.116 901.38Z" fill="#35312B"/>
<path fill-rule="evenodd" clip-rule="evenodd" d="M352.09 881.196C356.369 877.259 361.038 874.306 366.684 872.845C367.655 872.593 368.238 871.598 367.989 870.625C367.734 869.652 366.744 869.067 365.767 869.319C359.526 870.934 354.354 874.164 349.625 878.514C348.884 879.195 348.836 880.347 349.516 881.087C350.196 881.827 351.349 881.876 352.09 881.196Z" fill="#35312B"/>
<path fill-rule="evenodd" clip-rule="evenodd" d="M271.312 828.365C270.171 829.721 269.151 831.178 268.277 832.726C267.767 833.619 266.869 835.699 267.02 837.205C267.136 838.334 267.67 839.252 268.738 839.793C270.444 840.66 271.81 840.554 272.86 840.03C273.868 839.529 274.669 838.551 275.167 837.231C276.054 834.874 275.95 831.31 275.501 829.164C276.715 827.926 278.045 826.8 279.459 825.796C290.338 818.084 306.298 820.966 318.579 832.496C322.883 836.536 324.929 845.028 326.004 854.181C327.697 868.543 326.732 884.584 326.599 889.283C326.568 890.52 326.702 891.253 326.763 891.399C327.103 892.207 327.71 892.42 328.128 892.499C328.717 892.608 329.185 892.493 329.567 892.292C330.077 892.025 330.502 891.557 330.696 890.827C330.794 890.454 330.824 889.936 330.812 889.383C330.8 889.056 330.721 888.699 330.787 888.465C331.261 886.818 331.832 885.208 332.384 883.589C334.242 878.14 336.652 873.035 339.317 867.935C347.81 851.72 356.005 834.582 369.926 822.228C370.678 821.561 370.751 820.409 370.083 819.657C369.416 818.905 368.262 818.837 367.509 819.504C353.255 832.152 344.781 849.644 336.093 866.246C334.072 870.103 332.202 873.966 330.593 877.968C330.739 868.932 330.52 856.687 328.511 846.58C327.084 839.373 324.699 833.239 321.074 829.841C307.373 816.977 289.488 814.221 277.353 822.824C276.157 823.671 275.022 824.595 273.947 825.592C267.5 814.333 254.005 809.866 242.064 815.316C241.153 815.733 240.746 816.814 241.165 817.729C241.584 818.643 242.665 819.047 243.575 818.629C254.102 813.826 266.025 818.063 271.312 828.365ZM272.247 833.202C271.968 833.633 271.701 834.072 271.446 834.521C271.264 834.835 270.991 835.383 270.802 835.968C270.742 836.172 270.693 836.491 270.669 836.687C270.893 836.794 271.076 836.85 271.239 836.769C271.507 836.635 271.622 836.3 271.755 835.946C272.053 835.158 272.205 834.176 272.247 833.202Z" fill="#35312B"/>
</g>
<path d="M29.4544 772.004C28.0254 772.059 26.6701 772.653 25.6601 773.665C24.5972 774.728 24 776.17 24 777.673C24 779.177 24.5972 780.619 25.6601 781.682L55.3722 811.394C56.4354 812.457 57.8772 813.054 59.3806 813.054C60.884 813.054 62.3258 812.457 63.389 811.394C63.9164 810.867 64.3347 810.242 64.6202 809.554C64.9057 808.865 65.0527 808.127 65.0527 807.382C65.0527 806.637 64.9057 805.899 64.6202 805.21C64.3347 804.522 63.9164 803.896 63.389 803.37L33.6842 773.665C33.1319 773.111 32.471 772.678 31.743 772.392C31.0151 772.106 30.2359 771.974 29.4544 772.004Z" fill="#7F80E9"/>
</g>
<defs>
<clipPath id="clip0_159_1400">
<rect width="428" height="926" fill="white"/>
</clipPath>
<clipPath id="clip1_159_1400">
<rect width="3840" height="2160" fill="white" transform="translate(-1742 -705)"/>
</clipPath>
<clipPath id="clip2_159_1400">
<rect width="397" height="293" fill="white" transform="translate(12 11)"/>
</clipPath>
</defs>
</svg>
