<svg width="428" height="926" viewBox="0 0 428 926" fill="none" xmlns="http://www.w3.org/2000/svg">
<g clip-path="url(#clip0_314_5162)">
<rect width="428" height="926" fill="url(#paint0_linear_314_5162)"/>
<g clip-path="url(#clip1_314_5162)">
<rect width="428" height="926" transform="translate(1)" fill="url(#paint1_linear_314_5162)"/>
<g clip-path="url(#clip2_314_5162)">
<path d="M2099 1455V1185.75C2099 1185.75 1771.6 395.839 1048.91 757.183C326.224 1118.53 469.081 1337.01 -77.137 1118.53C-623.355 900.04 -858.648 278.192 -1169.57 160.545C-1480.5 42.8979 -1741 236.175 -1741 362.225C-1741 488.275 -1741 1455 -1741 1455H2099Z" fill="#FCAF7A"/>
<path fill-rule="evenodd" clip-rule="evenodd" d="M354.116 901.38C367.933 901.714 382.053 901.04 395.263 905.763C396.21 906.103 397.255 905.605 397.595 904.664C397.935 903.717 397.437 902.673 396.49 902.333C382.909 897.477 368.406 898.078 354.207 897.738C353.199 897.713 352.368 898.509 352.343 899.51C352.319 900.518 353.114 901.35 354.116 901.38Z" fill="#35312B"/>
</g>
</g>
</g>
<defs>
<linearGradient id="paint0_linear_314_5162" x1="185.5" y1="-172" x2="588.5" y2="377" gradientUnits="userSpaceOnUse">
<stop offset="1" stop-color="white" stop-opacity="0"/>
</linearGradient>
<linearGradient id="paint1_linear_314_5162" x1="-65.5" y1="-141.5" x2="428" y2="959" gradientUnits="userSpaceOnUse">
<stop stop-color="#290378"/>
<stop offset="1" stop-color="#240369"/>
</linearGradient>
<clipPath id="clip0_314_5162">
<rect width="428" height="926" fill="white"/>
</clipPath>
<clipPath id="clip1_314_5162">
<rect width="428" height="926" fill="white" transform="translate(1)"/>
</clipPath>
<clipPath id="clip2_314_5162">
<rect width="3840" height="2160" fill="white" transform="translate(-1741 -705)"/>
</clipPath>
</defs>
</svg>
