<svg width="348" height="208" viewBox="0 0 348 208" fill="none" xmlns="http://www.w3.org/2000/svg">
    <defs>
        <linearGradient id="paint0_linear_311_2557" x1="131" y1="12.0001" x2="219" y2="208" gradientUnits="userSpaceOnUse">
            <stop stop-color="#8FC8FF"/>
            <stop offset="1" stop-color="#8859EC"/>
        </linearGradient>
        <clipPath id="clip0_311_2557">
            <rect width="348" height="208" fill="white"/>
        </clipPath>
    </defs>
<g clip-path="url(#clip0_311_2557)">
<path d="M266.437 205.648C261.982 201.884 259.275 195.939 259.985 190.151C260.695 184.362 265.091 179.041 270.792 177.812C276.494 176.583 282.994 179.986 284.726 185.554C285.679 174.818 286.777 163.633 292.487 154.49C297.656 146.212 306.61 140.289 316.314 139.229C326.018 138.169 336.235 142.172 342.287 149.829C348.339 157.486 349.821 168.618 345.582 177.409C342.46 183.885 336.707 188.705 330.68 192.626C311.203 205.189 287.843 210.298 264.898 207.013L266.437 205.648Z" fill="black"/>
<path d="M332.691 142.394C324.684 148.914 317.339 156.206 310.761 164.165C300.466 176.578 292.136 190.495 286.06 205.431C285.615 206.521 287.385 206.995 287.825 205.918C297.766 181.643 313.637 160.247 333.985 143.687C334.899 142.944 333.597 141.656 332.691 142.394Z" fill="white"/>
<path d="M112.027 204.625C118.146 199.456 121.863 191.29 120.888 183.34C119.914 175.39 113.876 168.081 106.045 166.393C98.2131 164.705 89.2856 169.378 86.9069 177.026C85.5978 162.281 84.0893 146.918 76.2476 134.36C69.1471 122.99 56.8489 114.854 43.5205 113.399C30.192 111.944 16.1589 117.441 7.84643 127.958C-0.466039 138.475 -2.50131 153.765 3.32052 165.839C7.60926 174.734 15.5106 181.354 23.7893 186.74C50.2011 203.921 82.965 211.087 114.14 206.5" fill="#5C5C5C"/>
<path d="M21.0267 117.745C32.0243 126.701 42.1135 136.717 51.1482 147.648C60.1844 158.568 68.1398 170.339 74.9027 182.795C78.6828 189.782 82.0786 196.97 85.0748 204.328C85.6857 205.824 83.2548 206.476 82.6507 204.996C77.3436 192.025 70.7776 179.605 63.0471 167.915C55.3541 156.267 46.549 145.392 36.7556 135.444C31.2164 129.82 25.3721 124.505 19.2491 119.523C17.9941 118.501 19.782 116.732 21.0267 117.745L21.0267 117.745Z" fill="white"/>
<path d="M249.8 207.545H103.8V57.7846C103.8 25.922 129.729 0 161.6 0H192C223.871 0 249.8 25.922 249.8 57.7846V207.545Z" fill="#F2F2F2"/>
<path d="M219.4 207.545H103.8V57.7846C103.768 45.5756 107.635 33.6751 114.838 23.8159C115.104 23.4541 115.369 23.097 115.642 22.7437C119.126 18.1754 123.272 14.1521 127.943 10.8067C128.207 10.6147 128.472 10.4261 128.741 10.2375C132.65 7.5332 136.878 5.32247 141.33 3.65566C141.594 3.55549 141.863 3.45513 142.133 3.35886C146.159 1.92247 150.332 0.938554 154.576 0.425272C154.839 0.389342 155.109 0.361226 155.379 0.333109C159.515 -0.108961 163.686 -0.108961 167.821 0.333109C168.091 0.361226 168.361 0.389338 168.627 0.425657C172.87 0.938972 177.042 1.92277 181.067 3.35888C181.337 3.45514 181.606 3.5555 181.871 3.65587C186.268 5.30166 190.446 7.47939 194.313 10.1405C194.582 10.325 194.851 10.5136 195.116 10.7022C197.734 12.5708 200.194 14.6526 202.469 16.9262C204.294 18.7499 205.994 20.6938 207.559 22.7449C207.831 23.097 208.096 23.4541 208.361 23.8154C215.565 33.6747 219.432 45.5754 219.4 57.7846V207.545Z" fill="url(#paint0_linear_311_2557)"/>
<path d="M210 140.563C213.535 140.563 216.4 137.698 216.4 134.164C216.4 130.631 213.535 127.766 210 127.766C206.465 127.766 203.6 130.631 203.6 134.164C203.6 137.698 206.465 140.563 210 140.563Z" fill="#536DFE"/>
<path d="M237.84 203.059H232.936L230.602 184.149L237.84 184.149L237.84 203.059Z" fill="#FFB8B8"/>
<path d="M229.433 201.658H238.89V207.611H223.478C223.478 206.83 223.632 206.055 223.931 205.333C224.23 204.611 224.669 203.955 225.222 203.402C225.775 202.849 226.431 202.411 227.154 202.111C227.876 201.812 228.651 201.658 229.433 201.658V201.658Z" fill="#2F2E41"/>
<path d="M262.24 203.059H257.336L255.002 184.149L262.24 184.149L262.24 203.059Z" fill="#FFB8B8"/>
<path d="M253.833 201.658H263.29V207.611H247.878C247.878 206.83 248.032 206.055 248.331 205.333C248.63 204.611 249.069 203.955 249.622 203.402C250.175 202.849 250.831 202.411 251.554 202.111C252.276 201.812 253.051 201.658 253.833 201.658V201.658Z" fill="#2F2E41"/>
<path d="M213.239 135.432C212.886 134.912 212.652 134.321 212.552 133.701C212.452 133.081 212.49 132.447 212.662 131.843C212.834 131.239 213.136 130.68 213.548 130.205C213.959 129.731 214.47 129.352 215.043 129.096L231.714 83.1618L239.916 87.6372L220.883 131.534C221.249 132.526 221.238 133.618 220.853 134.602C220.468 135.587 219.735 136.396 218.793 136.877C217.85 137.357 216.765 137.476 215.741 137.209C214.718 136.943 213.827 136.31 213.239 135.432V135.432Z" fill="#FFB8B8"/>
<path d="M259.735 144.063C259.19 143.751 258.72 143.323 258.358 142.809C257.997 142.296 257.752 141.709 257.642 141.091C257.531 140.472 257.558 139.837 257.72 139.231C257.881 138.624 258.174 138.06 258.577 137.578L253.413 88.9873L262.748 89.4137L264.894 137.209C265.659 137.94 266.128 138.926 266.214 139.98C266.3 141.034 265.996 142.083 265.36 142.927C264.724 143.772 263.8 144.354 262.763 144.564C261.726 144.773 260.649 144.595 259.735 144.063V144.063Z" fill="#FFB8B8"/>
<path d="M244.842 74.6535C250.268 74.6535 254.667 70.2562 254.667 64.8317C254.667 59.4073 250.268 55.0099 244.842 55.0099C239.416 55.0099 235.018 59.4073 235.018 64.8317C235.018 70.2562 239.416 74.6535 244.842 74.6535Z" fill="#FFB8B8"/>
<path d="M259.672 133.012H230.053L230.089 132.782C230.142 132.437 235.367 98.2152 231.513 87.0194C231.127 85.9192 231.161 84.7148 231.609 83.6382C232.057 82.5615 232.888 81.6886 233.941 81.1876H233.941C239.45 78.5941 250.024 75.4006 258.949 83.1507C260.263 84.3099 261.288 85.7587 261.945 87.3825C262.602 89.0063 262.871 90.7606 262.733 92.5066L259.672 133.012Z" fill="#485498"/>
<path d="M235.742 103.273L222.407 100.568L228.658 85.7601C229.032 84.3259 229.959 83.0986 231.237 82.3473C232.515 81.596 234.039 81.3822 235.475 81.7527C236.91 82.1231 238.14 83.0477 238.895 84.3236C239.649 85.5994 239.867 87.1224 239.5 88.5584L235.742 103.273Z" fill="#485498"/>
<path d="M252.82 108.294L252.019 89.9227C251.411 86.4691 253.388 83.2044 256.429 82.6707C259.472 82.1391 262.442 84.5343 263.053 88.0133L266.066 105.18L252.82 108.294Z" fill="#485498"/>
<path d="M258.686 130.813C263.452 148.958 263.972 172.029 262.686 197.195L256.286 196.395L244.686 148.408L238.286 197.195L231.086 196.795C228.935 170.39 226.841 147.722 230.286 132.812L258.686 130.813Z" fill="#2F2E41"/>
<path d="M251.316 72.4223C249.483 74.3741 246.079 73.3263 245.84 70.6599C245.822 70.4529 245.823 70.2445 245.844 70.0378C245.968 68.8567 246.65 67.7844 246.487 66.5373C246.45 66.2269 246.334 65.9311 246.151 65.678C244.69 63.7227 241.262 66.5525 239.883 64.7825C239.038 63.6972 240.032 61.9884 239.383 60.7753C238.527 59.1743 235.992 59.9641 234.402 59.0873C232.632 58.1118 232.738 55.3982 233.903 53.7477C235.323 51.7348 237.813 50.6607 240.272 50.5059C242.731 50.3511 245.173 51.0156 247.469 51.9101C250.078 52.9264 252.664 54.3309 254.269 56.6238C256.221 59.4124 256.409 63.1613 255.433 66.4219C254.839 68.4054 252.812 70.8284 251.316 72.4223Z" fill="#2F2E41"/>
<path d="M335.993 207.802H40.675C40.5489 207.802 40.4282 207.751 40.3391 207.662C40.2501 207.573 40.2001 207.452 40.2001 207.326C40.2001 207.2 40.2501 207.079 40.3391 206.99C40.4282 206.9 40.5489 206.85 40.675 206.85H335.993C336.119 206.85 336.24 206.9 336.329 206.99C336.418 207.079 336.468 207.2 336.468 207.326C336.468 207.452 336.418 207.573 336.329 207.662C336.24 207.751 336.119 207.802 335.993 207.802V207.802Z" fill="#3F3D56"/>
<path d="M187.6 164.156H135.6C134.915 164.16 134.257 163.892 133.769 163.411C133.282 162.93 133.005 162.275 133 161.591V45.554C133.005 44.8693 133.282 44.2147 133.769 43.7338C134.257 43.2529 134.915 42.9848 135.6 42.9885H187.6C188.285 42.9848 188.943 43.2529 189.431 43.7338C189.918 44.2147 190.195 44.8693 190.2 45.554V161.591C190.195 162.275 189.918 162.93 189.431 163.411C188.943 163.892 188.285 164.16 187.6 164.156V164.156Z" fill="#787878"/>
<path d="M190.2 80.5344H133V81.3342H190.2V80.5344Z" fill="#CCCCCC"/>
<path d="M190.4 126.166H133.2V126.966H190.4V126.166Z" fill="#CCCCCC"/>
<path d="M151.8 42.9886H151V164.556H151.8V42.9886Z" fill="#CCCCCC"/>
<path d="M171.8 42.9886H171V164.556H171.8V42.9886Z" fill="#CCCCCC"/>
<path fill-rule="evenodd" clip-rule="evenodd" d="M300.082 41.1384C298.282 41.9445 296.49 42.7325 294.711 43.5902C293.205 44.3176 292.575 46.1329 293.302 47.6391C294.03 49.1453 295.842 49.7757 297.348 49.0484C299.076 48.215 300.815 47.4512 302.564 46.6663C304.091 45.9813 304.773 44.1872 304.088 42.6598C303.403 41.1354 301.609 40.4535 300.082 41.1384Z" fill="#724CFF"/>
<path fill-rule="evenodd" clip-rule="evenodd" d="M312.041 51.7214C309.446 57.3402 307.137 63.0863 304.664 68.7566C303.994 70.2901 304.697 72.0781 306.231 72.7479C307.764 73.4146 309.549 72.7146 310.219 71.1811C312.677 65.5502 314.965 59.8435 317.544 54.2641C318.244 52.7457 317.581 50.9425 316.062 50.2424C314.544 49.5393 312.741 50.203 312.041 51.7214Z" fill="#724CFF"/>
<path fill-rule="evenodd" clip-rule="evenodd" d="M334.064 54.4914C334.892 59.6344 335.864 64.7652 336.631 69.9173C336.88 71.569 338.422 72.7116 340.077 72.4661C341.732 72.2176 342.874 70.6749 342.629 69.0202C341.853 63.8469 340.88 58.6949 340.05 53.5276C339.783 51.8759 338.228 50.7516 336.577 51.0183C334.925 51.2819 333.797 52.8397 334.064 54.4914Z" fill="#724CFF"/>
</g>

</svg>
