<svg width="428" height="926" viewBox="0 0 428 926" fill="none" xmlns="http://www.w3.org/2000/svg">
    <defs>
        <linearGradient id="paint0_linear_334_1426" x1="-65.5" y1="-141.5" x2="596" y2="530" gradientUnits="userSpaceOnUse">
            <stop stop-color="#320097"/>
            <stop offset="1"/>
        </linearGradient>
        <linearGradient id="paint1_linear_334_1426" x1="44.5263" y1="772" x2="44.5263" y2="813.054" gradientUnits="userSpaceOnUse">
            <stop stop-color="#8FC8FF"/>
            <stop offset="1" stop-color="#8A5BEB"/>
        </linearGradient>
        <clipPath id="clip0_334_1426">
            <rect width="428" height="926" fill="white"/>
        </clipPath>
        <clipPath id="clip1_334_1426">
            <rect width="3840" height="2160" fill="white" transform="translate(-1742 -705)"/>
        </clipPath>
    </defs>
<g clip-path="url(#clip0_334_1426)">
<rect width="428" height="926" fill="url(#paint0_linear_334_1426)"/>
<g clip-path="url(#clip1_334_1426)">
<path d="M2098 1455V1185.75C2098 1185.75 1770.6 395.839 1047.91 757.183C325.224 1118.53 468.081 1337.01 -78.1371 1118.53C-624.355 900.04 -859.648 278.192 -1170.57 160.545C-1481.5 42.898 -1742 236.175 -1742 362.225C-1742 488.275 -1742 1455 -1742 1455H2098Z" fill="#FCAF7A"/>
<path fill-rule="evenodd" clip-rule="evenodd" d="M391.064 849.796C391.033 849.155 391.039 848.53 391.07 847.944C391.173 846.18 392.812 846.186 392.94 846.189C393.207 846.195 394.397 846.27 394.682 847.645C394.7 847.727 394.743 848.321 394.755 848.55C394.779 849.038 394.791 849.517 394.724 849.999C394.785 850.815 394.919 851.655 395.174 852.446C395.544 853.613 396.145 854.689 397.232 855.263C399.174 856.295 401.73 856.253 403.867 856.516C404.759 856.625 405.439 857.369 405.47 858.268C405.494 859.167 404.863 859.951 403.976 860.114C401.305 860.608 398.233 863.037 396.279 864.993C395.678 865.594 395.004 867.026 394.251 867.942C393.644 868.677 392.97 869.169 392.333 869.365C392.084 869.441 390.706 869.718 390.086 868.291C389.916 867.89 389.315 865.792 389.261 865.553C388.933 864.182 388.466 862.958 387.549 861.867C386.754 860.922 385.788 860.097 384.629 859.639C384.161 859.454 383.676 859.314 383.19 859.17C383.02 859.149 382.54 859.088 382.37 859.031C382.024 858.915 381.769 858.734 381.587 858.554C381.241 858.213 381.065 857.806 381.035 857.342C381.011 857.036 381.053 856.673 381.272 856.27C381.436 855.984 381.806 855.554 382.474 855.275C383.172 854.983 384.671 854.705 384.938 854.633C386.796 854.133 388.617 853.372 390.044 852.054C390.754 851.394 390.918 850.683 391.064 849.796ZM392.254 854.959C392.97 856.444 394.038 857.694 395.526 858.481C396.139 858.808 396.807 859.057 397.499 859.25C396.072 860.243 394.749 861.372 393.698 862.419C393.358 862.759 392.988 863.311 392.594 863.916C392.132 862.3 391.452 860.848 390.335 859.52C389.674 858.737 388.927 858.021 388.095 857.424C389.601 856.828 391.027 856.031 392.254 854.959Z" fill="#8FC8FF"/>
<path fill-rule="evenodd" clip-rule="evenodd" d="M353.116 901.38C366.933 901.714 381.053 901.04 394.263 905.763C395.21 906.103 396.254 905.605 396.594 904.664C396.934 903.717 396.437 902.673 395.489 902.333C381.909 897.477 367.406 898.078 353.207 897.738C352.199 897.713 351.367 898.509 351.343 899.51C351.319 900.518 352.114 901.35 353.116 901.38Z" fill="#35312B"/>
<path fill-rule="evenodd" clip-rule="evenodd" d="M352.09 881.196C356.369 877.259 361.038 874.306 366.684 872.845C367.655 872.593 368.238 871.598 367.989 870.625C367.734 869.652 366.744 869.067 365.767 869.319C359.526 870.934 354.354 874.164 349.625 878.514C348.884 879.195 348.836 880.347 349.516 881.087C350.196 881.827 351.349 881.876 352.09 881.196Z" fill="#8FC8FF"/>
<path fill-rule="evenodd" clip-rule="evenodd" d="M271.312 828.365C270.171 829.721 269.151 831.178 268.277 832.726C267.767 833.619 266.869 835.699 267.02 837.205C267.136 838.334 267.67 839.252 268.738 839.793C270.444 840.66 271.81 840.554 272.86 840.03C273.868 839.529 274.669 838.551 275.167 837.231C276.054 834.874 275.95 831.31 275.501 829.164C276.715 827.926 278.045 826.8 279.459 825.796C290.338 818.084 306.298 820.966 318.579 832.496C322.883 836.536 324.929 845.028 326.004 854.181C327.697 868.543 326.732 884.584 326.599 889.283C326.568 890.52 326.702 891.253 326.763 891.399C327.103 892.207 327.71 892.42 328.128 892.499C328.717 892.608 329.185 892.493 329.567 892.292C330.077 892.025 330.502 891.557 330.696 890.827C330.794 890.454 330.824 889.936 330.812 889.383C330.8 889.056 330.721 888.699 330.787 888.465C331.261 886.818 331.832 885.208 332.384 883.589C334.242 878.14 336.652 873.035 339.317 867.935C347.81 851.72 356.005 834.582 369.926 822.228C370.678 821.561 370.751 820.409 370.083 819.657C369.416 818.905 368.262 818.837 367.509 819.504C353.255 832.152 344.781 849.644 336.093 866.246C334.072 870.103 332.202 873.966 330.593 877.968C330.739 868.932 330.52 856.687 328.511 846.58C327.084 839.373 324.699 833.239 321.074 829.841C307.373 816.977 289.488 814.221 277.353 822.824C276.157 823.671 275.022 824.595 273.947 825.592C267.5 814.333 254.005 809.866 242.064 815.316C241.153 815.733 240.746 816.814 241.165 817.729C241.584 818.643 242.665 819.047 243.575 818.629C254.102 813.826 266.025 818.063 271.312 828.365ZM272.247 833.202C271.968 833.633 271.701 834.072 271.446 834.521C271.264 834.835 270.991 835.383 270.802 835.968C270.742 836.172 270.693 836.491 270.669 836.687C270.893 836.794 271.076 836.85 271.239 836.769C271.507 836.635 271.622 836.3 271.755 835.946C272.053 835.158 272.205 834.176 272.247 833.202Z" fill="#8FC8FF"/>
</g>
<path d="M29.4544 772.004C28.0254 772.059 26.6701 772.653 25.6601 773.665C24.5972 774.728 24 776.17 24 777.673C24 779.177 24.5972 780.619 25.6601 781.682L55.3722 811.394C56.4354 812.457 57.8772 813.054 59.3806 813.054C60.884 813.054 62.3258 812.457 63.389 811.394C63.9164 810.867 64.3347 810.242 64.6202 809.554C64.9057 808.865 65.0527 808.127 65.0527 807.382C65.0527 806.637 64.9057 805.899 64.6202 805.21C64.3347 804.522 63.9164 803.896 63.389 803.37L33.6842 773.665C33.1319 773.111 32.471 772.678 31.743 772.392C31.0151 772.106 30.2359 771.974 29.4544 772.004Z" fill="url(#paint1_linear_334_1426)"/>
</g>

</svg>
