<svg width="306" height="335" viewBox="0 0 306 335" fill="none" xmlns="http://www.w3.org/2000/svg">
<path d="M254.814 251.164L154.645 225.42C151.241 224.546 149.191 221.077 150.066 217.673L193.241 49.6793C194.115 46.2752 197.584 44.2255 200.988 45.1002L301.157 70.8437C304.56 71.7184 306.611 75.1866 305.736 78.5907L262.561 246.585C261.686 249.989 258.218 252.039 254.814 251.164Z" fill="#6B81BD"/>
<path d="M300.454 77.2297L257.279 245.226C257.155 245.713 256.658 246.011 256.172 245.886L156.003 220.142C155.516 220.017 155.219 219.515 155.344 219.028L198.519 51.033C198.644 50.546 199.144 50.2553 199.632 50.3807L229.645 58.0931C228.896 61.0029 230.648 63.9678 233.558 64.7158L263.166 72.3247C264.621 72.6984 266.093 72.4458 267.287 71.7396C268.482 71.0333 269.414 69.8655 269.788 68.4106L299.8 76.1236C300.287 76.2484 300.579 76.7427 300.454 77.2297Z" fill="#E9F3FF"/>
<path d="M296.333 123.202L294.398 122.705L301.519 94.9992L303.453 95.4965C304.579 95.786 305.257 96.9332 304.967 98.0592L298.895 121.688C298.606 122.813 297.458 123.491 296.333 123.202Z" fill="#E9F3FF"/>
<path d="M291.2 143.171L289.266 142.673L293.046 127.967L294.98 128.464C296.106 128.754 296.784 129.901 296.494 131.027L293.763 141.656C293.474 142.782 292.326 143.46 291.2 143.171Z" fill="#E9F3FF"/>
<path d="M235.862 59.6915C236.145 58.5946 237.262 57.9338 238.358 58.2154L262.092 64.3149C263.189 64.5971 263.849 65.7146 263.567 66.8122C263.285 67.9091 262.167 68.5699 261.07 68.2877L237.338 62.1888C236.241 61.9066 235.58 60.7891 235.862 59.6915Z" fill="#404A7B"/>
<path d="M278.67 137.069C272.289 161.898 246.987 176.854 222.157 170.473C197.327 164.092 182.372 138.79 188.753 113.96C195.134 89.1305 220.436 74.1751 245.266 80.5562C270.096 86.9373 285.051 112.239 278.67 137.069Z" fill="#9AB3DA"/>
<path d="M249.48 160.028L203.256 148.148C201.546 147.709 200.516 145.967 200.956 144.258L208.966 113.089C209.406 111.38 211.148 110.35 212.857 110.789L259.081 122.669C260.791 123.108 261.82 124.85 261.38 126.559L253.37 157.729C252.931 159.437 251.189 160.467 249.48 160.028Z" fill="#6B81BD"/>
<path d="M261.783 99.5559L254.791 126.761L235.739 136.58L235.479 136.201C233.614 133.432 229.977 132.498 227.009 134.023L226.599 134.232L214.641 116.443L221.634 89.2377C221.942 88.0415 223.158 87.3213 224.348 87.6278L260.18 96.8363C261.371 97.1421 262.091 98.359 261.783 99.5559Z" fill="#E9F3FF"/>
<path d="M246.928 105.148L226.178 99.8151C225.168 99.5553 224.56 98.5268 224.82 97.5171C225.08 96.508 226.108 95.8998 227.117 96.1591L247.868 101.493C248.878 101.752 249.486 102.781 249.226 103.79C248.967 104.8 247.938 105.408 246.928 105.148Z" fill="#404A7B"/>
<path d="M250.136 116.618L223.611 109.802C222.602 109.542 221.993 108.514 222.253 107.504C222.513 106.495 223.542 105.887 224.551 106.146L251.075 112.962C252.085 113.222 252.693 114.251 252.433 115.261C252.173 116.27 251.145 116.878 250.136 116.618Z" fill="#404A7B"/>
<path d="M248.322 123.677L221.797 116.861C220.788 116.601 220.179 115.572 220.439 114.563C220.699 113.554 221.728 112.946 222.737 113.205L249.261 120.021C250.271 120.281 250.879 121.31 250.619 122.319C250.36 123.329 249.331 123.937 248.322 123.677Z" fill="#404A7B"/>
<path d="M249.877 157.62L235.478 136.202C233.616 133.433 229.976 132.498 227.01 134.026L204.069 145.847" stroke="#404A7B" stroke-width="3" stroke-linecap="round" stroke-linejoin="round"/>
<path d="M226.603 134.236L212.46 113.198" stroke="#404A7B" stroke-width="3" stroke-linecap="round" stroke-linejoin="round"/>
<path d="M258.268 124.97L235.734 136.582" stroke="#404A7B" stroke-width="3" stroke-linecap="round" stroke-linejoin="round"/>
<path d="M238.533 199.852L193.646 188.317C191.567 187.782 190.316 185.664 190.849 183.586L191.817 179.822C192.351 177.743 194.469 176.491 196.549 177.025L241.435 188.56C243.513 189.094 244.765 191.213 244.231 193.291L243.263 197.056C242.729 199.135 240.612 200.386 238.533 199.852Z" fill="#404A7B"/>
<path d="M243.211 218.664L180.476 202.542C178.397 202.007 177.145 199.889 177.68 197.811C178.214 195.732 180.332 194.48 182.411 195.014L245.145 211.137C247.223 211.671 248.475 213.789 247.941 215.868C247.407 217.946 245.289 219.199 243.211 218.664Z" fill="#404A7B"/>
<path d="M240.255 230.165L177.521 214.043C175.442 213.509 174.19 211.39 174.724 209.311C175.258 207.233 177.376 205.98 179.455 206.515L242.189 222.638C244.268 223.172 245.52 225.29 244.986 227.369C244.451 229.447 242.334 230.699 240.255 230.165Z" fill="#404A7B"/>
<path d="M115.462 2V7.10556" stroke="#6B81BD" stroke-width="2.36475" stroke-linecap="round" stroke-linejoin="round"/>
<path d="M115.462 17.061V11.9561" stroke="#6B81BD" stroke-width="2.36475" stroke-linecap="round" stroke-linejoin="round"/>
<path d="M122.993 9.53049H117.888" stroke="#6B81BD" stroke-width="2.36475" stroke-linecap="round" stroke-linejoin="round"/>
<path d="M107.932 9.53049H113.038" stroke="#6B81BD" stroke-width="2.36475" stroke-linecap="round" stroke-linejoin="round"/>
<path d="M9.53052 193.894V198.999" stroke="#6B81BD" stroke-width="2.36475" stroke-linecap="round" stroke-linejoin="round"/>
<path d="M9.53052 208.954V203.849" stroke="#6B81BD" stroke-width="2.36475" stroke-linecap="round" stroke-linejoin="round"/>
<path d="M17.061 201.424H11.9562" stroke="#6B81BD" stroke-width="2.36475" stroke-linecap="round" stroke-linejoin="round"/>
<path d="M2 201.424H7.10556" stroke="#6B81BD" stroke-width="2.36475" stroke-linecap="round" stroke-linejoin="round"/>
<path d="M129.279 170.753V173.983" stroke="#6B81BD" stroke-width="2.36475" stroke-linecap="round" stroke-linejoin="round"/>
<path d="M129.279 180.283V177.052" stroke="#6B81BD" stroke-width="2.36475" stroke-linecap="round" stroke-linejoin="round"/>
<path d="M134.044 175.517H130.814" stroke="#6B81BD" stroke-width="2.36475" stroke-linecap="round" stroke-linejoin="round"/>
<path d="M124.514 175.517H127.745" stroke="#6B81BD" stroke-width="2.36475" stroke-linecap="round" stroke-linejoin="round"/>
<path d="M21.3648 65.555C21.3648 66.6658 20.4644 67.5666 19.3532 67.5666C18.2423 67.5666 17.3416 66.6658 17.3416 65.555C17.3416 64.4442 18.2423 63.5434 19.3532 63.5434C20.4644 63.5434 21.3648 64.4442 21.3648 65.555Z" stroke="#6B81BD" stroke-width="1.2705" stroke-linecap="round" stroke-linejoin="round"/>
<path d="M22.2306 236.4C22.2306 236.955 21.7804 237.406 21.2248 237.406C20.6692 237.406 20.219 236.955 20.219 236.4C20.219 235.844 20.6692 235.394 21.2248 235.394C21.7804 235.394 22.2306 235.844 22.2306 236.4Z" stroke="#6B81BD" stroke-width="1.2705" stroke-linecap="round" stroke-linejoin="round"/>
<path d="M170.119 305.175C170.119 306.74 168.85 308.009 167.285 308.009C165.719 308.009 164.45 306.74 164.45 305.175C164.45 303.609 165.719 302.34 167.285 302.34C168.85 302.34 170.119 303.609 170.119 305.175Z" stroke="#6B81BD" stroke-width="1.2705" stroke-linecap="round" stroke-linejoin="round"/>
<path d="M255.741 10.8187L229.396 30.286L231.315 20.4148L255.741 10.8187Z" fill="#F68D87"/>
<path d="M224.652 9.52368L229.396 17.2791L255.74 10.8199L224.652 9.52368Z" fill="#EBBCBA"/>
<path d="M255.741 10.8193L231.315 20.4148L238.037 31.4011L255.741 10.8193Z" fill="#EBBCBA"/>
<path d="M255.743 10.8223L231.315 20.4166L229.395 30.2835V17.2791L255.743 10.8223Z" fill="#F68D87"/>
<path d="M205.763 259.786L181.923 285.964C180.558 287.462 178.237 287.571 176.738 286.206L139.068 251.898C137.57 250.534 137.461 248.212 138.826 246.714L162.667 220.536C164.032 219.037 166.352 218.93 167.851 220.295L205.521 254.601C207.02 255.966 207.128 258.287 205.763 259.786Z" fill="#6B81BD"/>
<path d="M166.04 227.728L146.301 249.403C145.516 250.264 144.182 250.327 143.321 249.542C142.459 248.757 142.396 247.423 143.181 246.561L162.92 224.887C163.705 224.026 165.039 223.964 165.901 224.748L165.901 224.748C166.762 225.533 166.825 226.867 166.04 227.728Z" fill="#9AB3DA"/>
<path d="M181.084 241.428L161.343 263.103C160.559 263.964 159.225 264.027 158.364 263.242L148.961 254.679C148.099 253.894 148.036 252.559 148.821 251.698L168.56 230.023C169.345 229.162 170.679 229.1 171.541 229.885L180.944 238.449C181.805 239.233 181.868 240.567 181.084 241.428Z" fill="#9AB3DA"/>
<path d="M186.365 246.238L166.626 267.913C165.841 268.775 164.506 268.836 163.645 268.052C162.784 267.267 162.721 265.934 163.505 265.072L183.245 243.398C184.03 242.536 185.364 242.474 186.226 243.259C187.087 244.043 187.149 245.377 186.365 246.238Z" fill="#9AB3DA"/>
<path d="M201.408 259.938L181.669 281.613C180.884 282.475 179.55 282.537 178.688 281.752L169.285 273.189C168.424 272.404 168.362 271.07 169.146 270.208L188.885 248.533C189.67 247.672 191.004 247.61 191.866 248.395L201.269 256.959C202.131 257.743 202.193 259.077 201.408 259.938Z" fill="#9AB3DA"/>
<path d="M210.816 257.483L180.86 276.358C179.145 277.44 176.879 276.925 175.799 275.21L148.637 232.103C147.556 230.388 148.07 228.122 149.784 227.041L179.741 208.166C181.456 207.085 183.722 207.599 184.802 209.314L211.965 252.421C213.045 254.136 212.531 256.402 210.816 257.483Z" fill="#E9F3FF"/>
<path d="M181.076 215.996L156.274 231.625C155.288 232.246 153.985 231.951 153.364 230.965C152.743 229.979 153.039 228.676 154.024 228.055L178.826 212.426C179.812 211.805 181.115 212.101 181.737 213.087C182.358 214.072 182.062 215.376 181.076 215.996Z" fill="#9AB3DA"/>
<path d="M191.923 233.21L167.12 248.839C166.134 249.46 164.832 249.164 164.21 248.178L157.431 237.418C156.809 236.432 157.104 235.13 158.09 234.509L182.893 218.88C183.879 218.259 185.182 218.554 185.803 219.54L192.583 230.301C193.204 231.286 192.908 232.589 191.923 233.21Z" fill="#9AB3DA"/>
<path d="M195.731 239.255L170.928 254.883C169.942 255.504 168.64 255.209 168.018 254.223C167.397 253.237 167.693 251.934 168.679 251.313L193.481 235.685C194.467 235.063 195.77 235.359 196.391 236.345C197.012 237.331 196.717 238.634 195.731 239.255Z" fill="#9AB3DA"/>
<path d="M206.578 256.469L181.776 272.097C180.79 272.719 179.487 272.423 178.865 271.437L172.086 260.677C171.465 259.691 171.761 258.388 172.746 257.767L197.549 242.139C198.534 241.518 199.838 241.813 200.459 242.799L207.239 253.559C207.86 254.545 207.564 255.848 206.578 256.469Z" fill="#9AB3DA"/>
<path d="M194.005 269.62C194.055 269.714 194.154 269.894 194.304 270.149" stroke="#6B81BD" stroke-width="2" stroke-linecap="round" stroke-linejoin="round"/>
<path d="M202.988 280.094C208.033 284.246 215.322 288.188 225.174 288.841C232.53 289.328 238.478 287.888 243.002 285.306" stroke="#6B81BD" stroke-width="2" stroke-linecap="round" stroke-linejoin="round" stroke-dasharray="8.89 8.89"/>
<path d="M273.205 280.372C273.349 280.212 273.482 280.059 273.605 279.914" stroke="#6B81BD" stroke-width="2" stroke-linecap="round" stroke-linejoin="round"/>
<path d="M199.826 87.4541C192.104 84.4632 179.897 77.0779 180.788 60.4319C182.03 37.2353 212.439 27.3787 219.532 47.0459C226.626 66.7137 195.878 75.9204 190.522 54.6778C185.557 34.987 203.967 22.1558 225.847 23.0486" stroke="#6B81BD" stroke-width="2" stroke-linecap="round" stroke-linejoin="round" stroke-dasharray="9 9"/>
<path d="M130.868 51.504L125.182 51.2145C125.182 51.2145 124.762 61.5561 128.421 70.4898L134.277 68.9376C130.892 60.6789 130.868 51.504 130.868 51.504Z" fill="#404A7B"/>
<path d="M128.408 51.3781L122.722 51.0886C122.722 51.0886 122.28 61.9798 126.257 71.0632L132.111 69.5108C128.432 61.0807 128.408 51.3781 128.408 51.3781Z" fill="#6B81BD"/>
<path d="M147.06 23.126L153.056 59.5113C150.936 58.4178 148.886 57.491 146.915 56.7108C134.74 51.8539 125.503 52.3819 120.961 53.1671C119.499 53.4202 118.526 53.7036 118.093 53.8362C118.082 53.8381 118.071 53.8454 118.065 53.8463C117.919 53.8947 117.843 53.9205 117.843 53.9205C116.528 54.1368 114.941 51.1327 114.295 47.2123C113.649 43.2918 114.189 39.9369 115.504 39.72C115.504 39.72 115.583 39.7186 115.736 39.7179C115.742 39.717 115.755 39.7219 115.768 39.7195C116.22 39.7067 117.231 39.6624 118.697 39.4326C123.252 38.7251 132.165 36.2616 142.145 27.7543C143.76 26.3774 145.403 24.8417 147.06 23.126Z" fill="#6B81BD"/>
<path d="M120.96 53.1671C119.498 53.4202 118.525 53.703 118.093 53.8362C118.081 53.838 118.071 53.846 118.064 53.8469C117.919 53.8953 117.842 53.9199 117.842 53.9199C116.527 54.1368 114.94 51.1327 114.294 47.2122C113.648 43.2917 114.188 39.9368 115.503 39.7199C115.503 39.7199 115.582 39.7191 115.736 39.7185C115.742 39.7176 115.755 39.7219 115.767 39.7195C116.219 39.7067 117.23 39.6624 118.696 39.4332C117.813 40.4016 117.517 43.2989 118.059 46.5918C118.602 49.8848 119.812 52.5337 120.96 53.1671Z" fill="#F68D87"/>
<path d="M147.06 23.1261L153.056 59.5113C150.936 58.4178 148.886 57.491 146.915 56.7108C145.524 54.4536 144.245 51.2638 143.273 47.5324C142.864 45.9789 142.513 44.3302 142.229 42.6091C141.945 40.888 141.749 39.2138 141.638 37.6113C141.355 33.7718 141.551 30.3381 142.145 27.7544C143.76 26.3774 145.403 24.8417 147.06 23.1261Z" fill="#F68D87"/>
<path d="M157.713 40.0564C159.413 50.3719 157.994 59.1938 154.539 59.7627C151.665 60.2367 148.287 54.8272 146.261 47.0392C145.852 45.4864 145.5 43.837 145.217 42.1159C144.933 40.3942 144.737 38.7206 144.626 37.1181C144.046 29.0927 145.51 22.8846 148.384 22.4111C151.838 21.8416 156.013 29.7408 157.713 40.0564Z" fill="#404A7B"/>
<path d="M150.731 36.6526L152.192 45.5211C152.192 45.5211 148.966 45.9124 146.26 47.0397C145.851 45.4869 145.5 43.8382 145.217 42.1171C144.933 40.3954 144.737 38.7212 144.626 37.1187C147.551 37.3186 150.731 36.6526 150.731 36.6526Z" fill="#E9F3FF"/>
<path d="M152.948 40.8423C153.352 43.2906 153.014 45.3852 152.195 45.52C151.376 45.6548 150.385 43.7806 149.981 41.3317C149.578 38.8834 149.915 36.7894 150.734 36.654C151.553 36.5192 152.545 38.394 152.948 40.8423Z" fill="#6B81BD"/>
<path d="M94.0115 60.9756C104.49 62.6776 119.367 84.2167 119.367 84.2167C119.367 84.2167 122.056 80.694 127.795 81.1669C133.535 81.6398 139.644 85.7375 140.008 102.049C140.372 118.36 132.538 124.255 122.25 122.657C111.961 121.059 94.7991 99.4335 88.476 85.5484C78.231 63.0489 94.0115 60.9756 94.0115 60.9756Z" fill="#F68D87"/>
<path d="M119.367 84.2167C119.367 84.2167 117.334 87.6325 117.814 96.8866" stroke="#EBBCBA" stroke-linecap="round" stroke-linejoin="round"/>
<path d="M120.648 77.2979C120.409 77.3528 120.154 85.1985 120.154 85.1985C120.154 85.1985 122.78 87.2229 129.046 86.9329C134.081 86.7 135.162 85.7692 135.162 85.7692L134.767 78.1782C134.767 78.1782 130.39 75.044 120.648 77.2979Z" fill="#6B81BD"/>
<path d="M121.98 78.3588L120.893 68.237C120.893 68.237 119.57 57.1516 119.892 55.6593C120.213 54.1664 125.861 51.0928 127.472 51.0909C129.081 51.089 128.896 54.0209 126.22 56.5621C126.22 56.5621 131.101 55.4047 133.317 56.3542C135.533 57.3037 134.866 59.5486 134.204 60.7714C134.204 60.7714 136.185 62.3669 134.29 64.9722C134.29 64.9722 136.096 66.6512 134.401 69.109C134.401 69.109 135.949 71.4981 132.173 72.8363L132.681 78.5162C132.681 78.5162 127.042 80.4752 121.98 78.3588Z" fill="#EBBCBA"/>
<path d="M125.821 57.735C125.821 57.735 123.618 59.3938 125.836 61.2504C125.836 61.2504 124.228 63.7611 126.585 65.1349C126.585 65.1349 124.965 67.958 127.936 68.9392C127.936 68.9392 126.181 71.2716 129.036 72.4081" stroke="#404A7B" stroke-linecap="round" stroke-linejoin="round"/>
<path d="M88.2701 299.938C88.2701 299.938 95.3453 300.787 95.3453 300.575C95.3453 300.422 96.593 294.673 97.2641 291.59C97.5107 290.452 97.6802 289.679 97.6802 289.679L89.0514 288.83L88.6353 294.757L88.2701 299.938Z" fill="#EBBCBA"/>
<path d="M89.0514 288.83L88.6353 294.758C93.0769 294.121 95.871 292.575 97.2635 291.591C97.51 290.452 97.6796 289.68 97.6796 289.68L89.0514 288.83Z" fill="#404A7B"/>
<path d="M97.0455 297.744C97.0455 297.744 106.459 307.652 107.874 307.865C109.289 308.077 115.73 309.421 115.73 309.421L118.277 319.825C118.277 319.825 93.7898 320.249 81.1221 317.56C81.2639 310.625 83.0331 302.557 86.4299 297.178C89.6014 298.276 93.1199 298.514 97.0455 297.744Z" fill="#404A7B"/>
<path d="M104.547 311.369C104.682 311.369 104.814 311.299 104.886 311.174C104.994 310.986 104.93 310.748 104.743 310.639C96.5754 305.933 92.5384 299.239 92.4991 299.173C92.3888 298.986 92.1484 298.926 91.9636 299.036C91.7771 299.146 91.7159 299.386 91.8267 299.571C91.8673 299.641 96.0097 306.509 104.351 311.317C104.413 311.353 104.481 311.369 104.547 311.369Z" fill="#9AB3DA"/>
<path d="M110.067 307.369C110.067 307.369 124.646 307.157 121.037 324.991C121.037 324.991 96.1963 325.062 80.1318 322.019L80.3438 316.569C80.3438 316.569 93.7196 318.481 102.849 318.41C102.849 318.41 104.76 310.129 110.067 307.369Z" fill="#F68D87"/>
<path d="M84.5904 308.82C84.5904 311.576 86.4445 313.81 88.7304 313.81C91.0169 313.81 92.8704 311.576 92.8704 308.82C92.8704 306.065 91.0169 303.831 88.7304 303.831C86.4445 303.831 84.5904 306.065 84.5904 308.82Z" fill="#EDEDED"/>
<path d="M102.708 278.071C102.708 278.071 102.212 285.714 99.7348 291.375C99.7348 291.375 94.8516 292.084 90.4639 291.375C86.0756 290.668 84.0943 289.039 84.0943 289.039L84.5195 277.292C90.6571 275.291 96.7244 275.418 102.708 278.071Z" fill="#9AB3DA"/>
<path d="M78.5043 182.531C78.5043 182.531 78.9628 185.461 79.6418 189.98C80.1349 193.19 80.7381 197.214 81.3832 201.553C82.7927 211.125 84.3808 222.268 85.2979 229.877C87.2089 245.8 87.4215 279.132 87.4215 279.132C92.7286 282.105 99.9474 280.406 99.9474 280.406C99.9474 280.406 107.803 236.034 110.138 215.015C112.474 193.997 114.597 147.713 114.597 147.713C113.96 130.515 81.4765 132.638 79.9907 156.204L78.5043 182.531Z" fill="#6B81BD"/>
<path d="M79.6418 189.978C80.1342 193.189 80.7375 197.214 81.3832 201.553C87.2597 195.396 89.2894 185.027 89.4251 184.271C88.7286 187.006 84.3215 188.823 79.6418 189.978Z" fill="#404A7B"/>
<path d="M101.869 216.297C108.93 217.248 108.782 237.034 97.9934 237.139C87.2058 237.244 92.5469 215.04 101.869 216.297Z" fill="#9AB3DA"/>
<path d="M89.969 277.825C90.1665 277.825 90.3361 277.676 90.3579 277.476C94.1375 242.546 86.3718 188.551 86.293 188.01C86.2621 187.795 86.0623 187.651 85.8491 187.679C85.6352 187.711 85.4881 187.909 85.5183 188.123C85.5971 188.663 93.3489 242.559 89.5796 277.392C89.5566 277.607 89.7122 277.8 89.9272 277.822C89.9418 277.824 89.9545 277.825 89.969 277.825Z" fill="#9AB3DA"/>
<path d="M82.1646 189.716C82.1845 189.716 82.2045 189.714 82.2245 189.711C82.4838 189.671 88.5929 188.668 89.8146 184.335C90.9794 180.207 92.7262 159.556 92.8001 158.679C92.8183 158.463 92.659 158.274 92.4433 158.257C92.2332 158.234 92.0393 158.398 92.0206 158.613C92.0024 158.828 90.2065 180.067 89.0617 184.124C88.161 187.318 84.0004 188.521 82.5801 188.843C82.7436 185.565 83.6201 167.192 83.1397 159.788C83.1252 159.572 82.9217 159.414 82.7242 159.423C82.5092 159.438 82.3457 159.624 82.3596 159.839C82.8829 167.897 81.7848 189.091 81.7733 189.304C81.7678 189.422 81.8139 189.537 81.9017 189.616C81.975 189.681 82.0683 189.716 82.1646 189.716Z" fill="#9AB3DA"/>
<path d="M111.732 168.015C111.858 168.015 111.934 168.004 111.946 168.003C112.161 167.971 112.309 167.772 112.277 167.56C112.245 167.346 112.045 167.2 111.836 167.229C111.787 167.233 110.854 167.335 109.831 166.365C108.324 164.936 106.673 161.258 107.361 151.845C107.376 151.63 107.214 151.442 106.998 151.427C106.801 151.412 106.596 151.573 106.58 151.788C105.866 161.559 107.68 165.435 109.328 166.966C110.333 167.899 111.31 168.015 111.732 168.015Z" fill="#9AB3DA"/>
<path d="M41.5631 304.287L49.2058 304.507L51.0314 296.516L51.7534 293.357L41.9871 293.246L41.7581 299.124L41.5631 304.287Z" fill="#EBBCBA"/>
<path d="M41.7575 299.123C45.1888 298.826 48.3052 297.832 51.0314 296.515L51.7528 293.356L41.9865 293.247L41.7575 299.123Z" fill="#404A7B"/>
<path d="M51.5941 301.797C51.5941 301.797 45.6492 298.93 40.3414 301.106C40.3414 301.106 37.3692 306.414 36.3607 315.702C36.3607 315.702 40.0761 327.432 48.1974 328.334C56.318 329.237 62.7936 327.274 62.7936 327.274C62.7936 327.274 57.3974 314.605 56.4949 312.217C55.5924 309.828 51.5941 301.797 51.5941 301.797Z" fill="#404A7B"/>
<path d="M48.4936 318.257C50.3531 318.257 54.1011 318.037 55.2556 316.325C55.7093 315.653 55.7214 314.845 55.2932 313.927C53.344 309.749 51.155 303.275 51.1332 303.21C51.0642 303.006 50.8425 302.897 50.639 302.964C50.4342 303.033 50.324 303.255 50.393 303.459C50.4148 303.525 52.6166 310.041 54.5839 314.257C54.8922 314.919 54.9001 315.453 54.6069 315.887C53.6196 317.351 49.5378 317.521 47.7649 317.463C47.2173 316.222 44.5074 309.862 43.5068 303.417C43.4735 303.203 43.2706 303.058 43.0592 303.09C42.846 303.124 42.7006 303.324 42.7339 303.537C43.8617 310.796 47.1192 317.936 47.1525 318.006C47.2125 318.139 47.3421 318.226 47.4869 318.234C47.6238 318.241 47.9896 318.257 48.4936 318.257Z" fill="#9AB3DA"/>
<path d="M38.2015 309.501C37.7072 311.834 38.0343 313.879 38.9331 314.069C39.8314 314.26 40.961 312.524 41.4553 310.191C41.9495 307.858 41.6225 305.814 40.7242 305.623C39.8253 305.433 38.6957 307.169 38.2015 309.501Z" fill="#EDEDED"/>
<path d="M58.0873 312.323C58.0873 312.323 69.6937 319.471 64.28 333.802C64.28 333.802 50.055 335.925 44.5347 333.377C39.0149 330.83 35.4055 320.082 35.4055 320.082C35.4055 320.082 35.5915 316.923 36.2814 314.96C36.2814 314.96 39.4038 320.887 43.6146 324.53C43.6146 324.53 44.3935 310.306 58.0873 312.323Z" fill="#F68D87"/>
<path d="M57.8038 282.422C57.8038 282.422 48.8872 278.353 39.1209 282.21L39.0149 294.523C39.0149 294.523 45.9145 296.966 53.2392 294.843L57.8038 282.422Z" fill="#9AB3DA"/>
<path d="M40.4928 283.752C47.3203 286.019 53.9612 284.448 55.7444 283.939C59.4725 272.72 75.0645 225.417 79.3535 205.46C84.2367 182.743 85.0859 156.841 85.0859 156.841C82.5383 138.056 46.9726 136.986 43.6855 157.903C43.6855 157.903 43.4735 228.602 43.2615 238.581C43.0828 246.912 41.1294 274.783 40.4928 283.752Z" fill="#6B81BD"/>
<path d="M81.4329 194.625C81.6219 194.625 81.7878 194.489 81.8187 194.296C84.846 175.252 85.4705 157.036 85.4766 156.854C85.4832 156.639 85.3142 156.457 85.0986 156.45C85.0937 156.45 85.0895 156.45 85.0859 156.45C84.8757 156.45 84.7013 156.618 84.6946 156.829C84.6885 157.01 84.0653 175.179 81.0458 194.174C81.0119 194.387 81.1573 194.587 81.3711 194.621C81.3917 194.624 81.4123 194.625 81.4329 194.625Z" fill="#9AB3DA"/>
<path d="M62.581 223.506C69.738 224.471 69.5872 244.525 58.6536 244.632C47.7195 244.738 53.1332 222.232 62.581 223.506Z" fill="#9AB3DA"/>
<path d="M43.8987 281.01C44.0931 281.01 44.2609 280.865 44.2851 280.666C44.3772 279.923 53.427 205.754 54.2671 155.362C54.2707 155.146 54.0981 154.968 53.8825 154.964C53.642 154.968 53.4888 155.133 53.4851 155.349C52.6456 205.701 43.6001 279.828 43.5092 280.571C43.4826 280.785 43.6358 280.98 43.8502 281.006C43.8666 281.009 43.8829 281.01 43.8987 281.01Z" fill="#9AB3DA"/>
<path d="M56.1036 180.233C58.7929 180.233 63.0983 176.998 63.6567 174.558C64.5047 170.85 64.9693 157.118 64.9893 156.535C64.9965 156.32 64.8275 156.139 64.6113 156.132C64.6071 156.132 64.6022 156.132 64.598 156.132C64.3884 156.132 64.214 156.298 64.2073 156.51C64.2031 156.652 63.7258 170.748 62.8941 174.385C62.418 176.468 58.4192 179.451 56.1036 179.451C55.888 179.451 55.7123 179.625 55.7123 179.841C55.7123 180.058 55.888 180.233 56.1036 180.233Z" fill="#9AB3DA"/>
<path d="M69.8487 57.3964C69.8487 57.3964 81.7346 57.7024 93.7866 60.7718C93.7866 60.7718 110.946 94.7164 117.461 149.185C117.461 149.185 109.205 160.3 83.6633 163.905C58.1219 167.509 39.7715 160.194 39.7715 160.194C39.7715 160.194 36.68 91.5559 42.1031 72.1117C42.1031 72.1117 55.6014 58.6432 69.8487 57.3964Z" fill="#F68D87"/>
<path d="M94.9027 63.1314C97.4804 68.7783 104.066 84.3452 109.835 107.502" stroke="#EBBCBA" stroke-linecap="round" stroke-linejoin="round"/>
<path d="M114.095 145.355C113.835 145.557 87.4434 165.487 41.9115 155.387" stroke="#EBBCBA" stroke-linecap="round" stroke-linejoin="round"/>
<path d="M75.3755 87.9466C74.9478 87.7298 74.6354 87.3575 74.496 86.8977C73.4485 83.4447 69.8538 71.7422 67.5902 66.1478C67.5117 65.9532 67.5997 65.7324 67.7907 65.6453L72.9937 63.2758C73.0908 63.2326 73.2047 63.2291 73.3046 63.2701C73.4051 63.3112 73.4825 63.3918 73.5214 63.4931C73.5718 63.6272 78.676 77.0319 81.0706 84.7391C81.3493 85.6379 80.868 86.587 79.9765 86.9009L76.7473 88.0351C76.6486 88.0698 76.547 88.096 76.4468 88.1125C76.0829 88.173 75.7119 88.1171 75.3755 87.9466ZM68.455 66.2017C70.7354 71.9484 74.2146 83.2789 75.2437 86.6698C75.3212 86.9231 75.494 87.1296 75.7301 87.2493C75.9668 87.369 76.2367 87.3862 76.4884 87.2972L79.7175 86.163C80.2111 85.9901 80.4768 85.4657 80.324 84.9713C78.1655 78.0278 73.7967 66.4273 72.9383 64.1605L68.455 66.2017Z" fill="#EBBCBA"/>
<path d="M68.0618 53.1724C70.4099 52.8467 73.3999 53.5773 74.9557 54.0342C75.5851 54.2192 76.0214 54.7875 76.0479 55.4422L76.3418 62.7082C76.3418 62.7082 73.6725 66.7511 68.6263 66.9315C63.5807 67.1119 60.87 64.1464 60.87 64.1464L59.4536 57.2015C59.3244 56.5656 59.6019 55.9112 60.1606 55.5826C61.3555 54.8794 63.8156 53.7607 68.0618 53.1724Z" fill="#6B81BD"/>
<path d="M64.5039 47.1692L64.4928 50.3463L64.4696 57.8117C64.6301 57.8483 64.7908 57.8758 64.952 57.904C67.7806 58.4017 70.2951 57.8667 72.0648 57.2083L71.1462 53.2607L69.8544 47.7347L64.5039 47.1692Z" fill="#EBBCBA"/>
<path d="M64.5045 47.1692L64.4928 50.3464C65.798 51.5151 67.8682 52.6876 71.1456 53.2613L69.8544 47.7354L64.5045 47.1692Z" fill="#404A7B"/>
<path d="M66.9674 58.4868C69.1076 58.5228 70.9312 58.0477 72.201 57.5753C72.4211 57.4918 72.6291 57.408 72.8304 57.3248C74.1988 56.7499 75.0075 56.1789 75.0406 56.1547C75.2166 56.0298 75.257 55.7851 75.1322 55.6086C75.0073 55.4338 74.7638 55.3928 74.5867 55.5182C74.5787 55.5235 73.8093 56.0661 72.5287 56.6037C72.3371 56.6834 72.1353 56.763 71.9255 56.8431C70.3528 57.4285 67.8791 58.0205 65.0197 57.5193C64.8554 57.4905 64.7062 57.4643 64.5572 57.4303C63.3644 57.1758 62.1785 56.7306 61.0259 56.1072C60.838 56.0047 60.5993 56.074 60.4962 56.2649C60.393 56.454 60.4636 56.6914 60.6539 56.7934C61.8719 57.4542 63.1283 57.9248 64.388 58.1932C64.5449 58.2291 64.7074 58.2585 64.8711 58.2873C65.5959 58.4146 66.2976 58.4755 66.9674 58.4868Z" fill="#9AB3DA"/>
<path d="M70.2246 26.0122C78.2756 27.1932 79.3911 45.9449 78.0987 48.7787C76.8069 51.6131 65.4387 49.5616 63.6527 48.5405C61.8666 47.5195 59.9678 40.8928 59.5705 36.5823C59.1726 32.2717 60.8738 24.6404 70.2246 26.0122Z" fill="#EBBCBA"/>
<path d="M61.8424 41.5991L61.9369 38.9466C61.9369 38.9466 64.6726 36.6004 64.0434 33.5885C64.0434 33.5885 74.5031 38.5837 82.0883 33.1592C82.0883 33.1592 80.7111 31.1684 79.1596 30.391C79.1596 30.391 85.8087 25.0107 84.9707 16.7336C84.6625 13.6869 76.7621 17.1271 74.1678 20.7564C74.1678 20.7564 76.6489 12.8033 72.8393 8.34932C71.7419 7.06575 66.3994 13.2529 64.7376 19.2207C64.7376 19.2207 64.0134 14.4193 62.0779 12.5868C61.4215 11.9654 58.6202 16.4342 58.1776 23.4266C58.1776 23.4266 52.6973 26.3642 50.5411 31.6662C48.3856 36.9682 51.1601 44.4056 61.8886 45.5357L61.8424 41.5991Z" fill="#404A7B"/>
<path d="M61.8424 41.5991C61.8424 41.5991 59.0496 35.437 55.2773 37.3002C51.5057 39.1629 55.8235 46.5796 62.607 46.0011L61.8424 41.5991Z" fill="#EBBCBA"/>
<path d="M60.5566 44.6304C60.5747 44.6314 60.5935 44.6312 60.6118 44.6298C60.827 44.6115 60.9867 44.4226 60.969 44.2075C60.9646 44.1563 60.4915 39.116 56.2873 38.8246L56.2819 38.8243C56.0684 38.8124 55.8853 38.9739 55.8697 39.1878C55.8553 39.4035 56.0178 39.5897 56.2329 39.6047C59.776 39.8508 60.1859 44.2287 60.1895 44.2726C60.2064 44.4695 60.3655 44.6197 60.5566 44.6304Z" fill="#404A7B"/>
<path d="M57.7927 43.7053C57.9814 43.7158 58.1541 43.5877 58.1957 43.3971C58.1991 43.3797 58.5675 41.7004 59.3099 40.7457C59.4425 40.5753 59.4119 40.3298 59.241 40.1965C59.0718 40.0651 58.8257 40.0945 58.6924 40.2654C57.8389 41.3632 57.4471 43.157 57.4308 43.2325C57.385 43.4441 57.5197 43.6518 57.7313 43.697C57.751 43.7017 57.7721 43.7041 57.7927 43.7053Z" fill="#404A7B"/>
<path d="M73.1582 43.4481C73.1848 43.4495 73.2127 43.4487 73.2403 43.4435C73.3137 43.4325 75.0355 43.1475 75.3896 41.6154C75.4273 41.4513 75.3555 41.2817 75.2124 41.1936C73.9546 40.4234 72.7856 38.2047 72.7741 38.1822C72.6738 37.9892 72.4365 37.9165 72.2465 38.0163C72.0546 38.1166 71.9808 38.3527 72.0805 38.5445C72.1293 38.6376 73.2195 40.704 74.5456 41.6848C74.1841 42.4885 73.1299 42.67 73.1183 42.6718C72.9059 42.706 72.7607 42.9066 72.7949 43.119C72.8247 43.3039 72.9785 43.438 73.1582 43.4481Z" fill="#404A7B"/>
<path d="M70.954 46.4336C73.2073 46.5592 74.6752 45.7147 74.7498 45.6716C74.9355 45.5618 74.9967 45.3226 74.8882 45.1363C74.7797 44.9501 74.5411 44.8889 74.3537 44.9967C74.3348 45.0078 72.3814 46.1183 69.5927 45.4429C69.3798 45.3886 69.1716 45.5201 69.1199 45.7302C69.0694 45.9403 69.1983 46.1525 69.4077 46.2036C69.9548 46.3361 70.472 46.4068 70.954 46.4336Z" fill="#404A7B"/>
<path d="M69.3763 36.1583C69.3763 36.1583 68.9424 34.6375 68.5009 34.4279C68.0607 34.2171 68.1677 34.9644 68.1677 34.9644C68.1677 34.9644 64.9861 34.9927 65.2632 38.139C65.2632 38.139 66.2627 36.1734 69.3763 36.1583Z" fill="#404A7B"/>
<path d="M72.9663 35.3544C72.9663 35.3544 72.5573 33.8229 72.7331 33.4105C72.9084 32.998 73.1741 33.6947 73.1741 33.6947C73.1741 33.6947 75.1275 32.0413 76.3528 34.8826C76.3528 34.8826 74.8722 33.7251 72.9663 35.3544Z" fill="#404A7B"/>
<path d="M70.2351 39.2303C70.4198 40.042 70.0409 40.8198 69.389 40.9679C68.7371 41.1159 68.0586 40.5776 67.8745 39.7666C67.6898 38.9543 68.0687 38.1765 68.7206 38.0284C69.3725 37.8803 70.051 38.4187 70.2351 39.2303Z" fill="#404A7B"/>
<path d="M69.8249 38.7961C69.9665 38.9775 69.9331 39.2396 69.7517 39.3811C69.5703 39.5227 69.3082 39.4898 69.1667 39.3085C69.0251 39.1271 69.0579 38.8656 69.2393 38.7241C69.4207 38.5825 69.6834 38.6148 69.8249 38.7961Z" fill="white"/>
<path d="M76.3933 37.5844C76.5774 38.3961 76.1991 39.1739 75.5472 39.322C74.8953 39.4701 74.2173 38.9324 74.0333 38.1208C73.8486 37.3091 74.2275 36.5307 74.8794 36.3826C75.5313 36.2345 76.2092 36.7728 76.3933 37.5844Z" fill="#404A7B"/>
<path d="M75.9838 37.1503C76.1253 37.3317 76.0919 37.5937 75.9105 37.7353C75.7291 37.8768 75.467 37.8446 75.3255 37.6632C75.1839 37.4818 75.2167 37.2198 75.3981 37.0782C75.5795 36.9367 75.8422 36.9683 75.9838 37.1503Z" fill="white"/>
<path d="M39.796 160.613C39.796 160.613 46.9053 167.966 47.9797 168.308C49.0535 168.65 57.5475 164.313 57.5475 164.313C57.5475 164.313 62.2568 166.767 63.998 165.933C66.2436 164.856 64.4852 162.648 64.4852 162.648C64.4852 162.648 65.8009 161.429 65.4938 160.452C65.1861 159.475 64.2284 158.649 64.2284 158.649C64.2284 158.649 64.682 157.361 64.0503 156.379C63.4192 155.396 61.8095 154.829 61.8095 154.829C61.8095 154.829 61.5134 153.205 60.8744 152.655C60.2361 152.104 55.1792 151.047 53.7711 151.347C52.3625 151.648 47.7404 156.86 47.7404 156.86L45.2059 153.47L39.796 160.613Z" fill="#EBBCBA"/>
<path d="M60.8432 154.543C60.8432 154.543 56.2693 153.657 55.6752 153.647" stroke="#404A7B" stroke-linecap="round" stroke-linejoin="round"/>
<path d="M57.3407 157.345L63.0459 158.36" stroke="#404A7B" stroke-linecap="round" stroke-linejoin="round"/>
<path d="M58.842 161.149L63.0919 162.03" stroke="#404A7B" stroke-linecap="round" stroke-linejoin="round"/>
<path d="M28.5351 156.213C28.5351 156.213 34.2182 161.275 36.1616 162.495C38.1045 163.715 46.5607 157.164 46.4983 153.6L40.3694 145.832L28.5351 156.213Z" fill="#6B81BD"/>
<path d="M42.856 71.3951C22.4544 87.6219 4.22063 125.43 5.79286 134.669C7.36447 143.909 21.7964 158.835 27.8356 159.224C33.8748 159.613 42.4055 148.817 42.4636 145.363C42.5217 141.909 33.5149 129.666 33.5149 129.666C33.5149 129.666 50.8306 110.093 56.2339 96.9397C61.6378 83.7875 55.7431 66.3107 42.856 71.3951Z" fill="#F68D87"/>
<path d="M32.6614 157.708C37.6109 154.674 42.42 147.953 42.4636 145.363C42.5217 141.909 33.5149 129.666 33.5149 129.666C33.5149 129.666 50.83 110.093 56.2339 96.9397C61.2998 84.6093 56.4354 68.4783 45.1891 70.6995" stroke="#EBBCBA" stroke-linecap="round" stroke-linejoin="round"/>
<path d="M22.2535 131.636C31.044 131.064 33.5155 129.666 33.5155 129.666C33.5155 129.666 31.4456 132.906 25.6441 135.49" stroke="#EBBCBA" stroke-linecap="round" stroke-linejoin="round"/>
</svg>
